<?xml version="1.0" standalone="no"?>
<!DOCTYPE svg PUBLIC "-//W3C//DTD SVG 1.1//EN" "http://www.w3.org/Graphics/SVG/1.1/DTD/svg11.dtd" >
<svg xmlns="http://www.w3.org/2000/svg">
<metadata></metadata>
<defs>
<font id="adihaus_cyr_mdregular" horiz-adv-x="533" >
<font-face units-per-em="1000" ascent="800" descent="-200" />
<missing-glyph horiz-adv-x="240" />
<glyph unicode="&#xd;" horiz-adv-x="240" />
<glyph unicode=" "  horiz-adv-x="240" />
<glyph unicode="&#x09;" horiz-adv-x="240" />
<glyph unicode="&#xa0;" horiz-adv-x="240" />
<glyph unicode="!" horiz-adv-x="332" d="M223 212h-80l-22 500h124zM127 0v109h112v-109h-112z" />
<glyph unicode="&#x22;" horiz-adv-x="444" d="M265 521v191h101v-191h-101zM78 521v191h101v-191h-101z" />
<glyph unicode="#" horiz-adv-x="672" d="M531 426l-20 -124h79v-94h-94l-33 -208h-106l33 208h-137l-32 -208h-107l33 208h-79v94h94l20 124h-81v94h95l31 196h107l-31 -196h136l31 196h106l-31 -196h78v-94h-92zM288 426l-20 -124h137l19 124h-136z" />
<glyph unicode="$" horiz-adv-x="608" d="M556 203q0 -45 -15.5 -81t-44 -62t-68.5 -42.5t-88 -20.5v-111h-82v108q-72 3 -126 24.5t-102 69.5l72 71q36 -36 76.5 -51t88.5 -17v222l-26 3q-43 5 -77.5 21t-56.5 36q-53 50 -53 136t53.5 142t150.5 65v90h82v-89q60 -4 105 -23t86 -57l-69 -68q-26 25 -59.5 38 t-71.5 16v-216l34 -5q50 -8 80 -20.5t53 -32.5q29 -26 43.5 -63t14.5 -83zM449 200q0 49 -28 74q-20 18 -42 22.5t-48 8.5v-212q56 5 87 32.5t31 74.5zM267 622q-53 -5 -80.5 -35t-27.5 -74q0 -20 6.5 -36.5t20.5 -29.5q16 -14 37 -22t44 -11v208z" />
<glyph unicode="%" horiz-adv-x="842" d="M784 130q0 -32 -11 -57.5t-30 -43t-44.5 -27t-54.5 -9.5t-54.5 9.5t-44.5 27t-30 43t-11 57.5v101q0 32 11 57.5t30 43t44.5 27t54.5 9.5t54.5 -9.5t44.5 -27t30 -43t11 -57.5v-101zM338 481q0 -32 -11 -57.5t-30 -43t-44.5 -26.5t-54.5 -9t-54.5 9t-44.5 26.5t-30 43 t-11 57.5v101q0 32 11 57.5t30 43t44.5 27t54.5 9.5t54.5 -9.5t44.5 -27t30 -43t11 -57.5v-101zM294 0h-82l336 712h81zM707 228q0 34 -15.5 53t-47.5 19t-47.5 -18.5t-15.5 -53.5v-95q0 -35 15.5 -53.5t47.5 -18.5t47.5 19t15.5 53v95zM261 579q0 34 -15.5 53t-47.5 19 t-47.5 -18.5t-15.5 -53.5v-95q0 -71 63 -71q32 0 47.5 18.5t15.5 52.5v95z" />
<glyph unicode="&#x26;" horiz-adv-x="730" d="M553 0l-58 70q-12 -10 -29 -23t-41 -25t-55.5 -20t-71.5 -8q-112 0 -171 57.5t-59 154.5q0 37 12 66.5t32 53.5t45.5 44t51.5 37q-12 14 -25 30.5t-24 35.5t-18 40.5t-7 46.5q0 34 12.5 63t35 50t54.5 33t72 12q38 0 69 -12t53.5 -33.5t34.5 -50.5t12 -63 q0 -42 -21 -72.5t-55 -53.5q-10 -8 -20 -14q-8 -6 -17 -11.5t-15 -10.5l150 -179q20 28 28.5 61t9.5 82h98q-2 -69 -18.5 -123t-52.5 -96l119 -142h-131zM265 343q-20 -14 -37 -27.5t-30.5 -29t-21 -34.5t-7.5 -44q0 -54 36.5 -87.5t92.5 -33.5q36 0 68.5 11.5t67.5 43.5z M380 558q0 30 -19.5 50.5t-51.5 20.5q-33 0 -51.5 -20t-18.5 -50q0 -22 14 -44t41 -54q9 5 21 14q6 4 13 9q21 14 36.5 31.5t15.5 42.5z" />
<glyph unicode="'" horiz-adv-x="257" d="M78 521v191h101v-191h-101z" />
<glyph unicode="(" horiz-adv-x="317" d="M190 -94q-24 24 -45 46t-36 49q-16 28 -19.5 57t-3.5 59v478q0 30 3.5 59t19.5 57q15 27 36 49t45 46l69 -69l-31.5 -31.5t-24.5 -34.5q-15 -29 -15 -82v-466q0 -54 15 -82q11 -21 24.5 -34.5l31.5 -31.5z" />
<glyph unicode=")" horiz-adv-x="317" d="M232 117q0 -30 -4 -59t-20 -57q-15 -27 -35.5 -49t-44.5 -46l-70 70q18 18 31 31.5t24 34.5q15 28 15 81v466q0 52 -15 81q-11 21 -24 34.5t-31 31.5l70 70q24 -24 44.5 -46t35.5 -49q16 -28 20 -57t4 -59v-478v0z" />
<glyph unicode="*" horiz-adv-x="485" d="M387 401l-111 69l4 -131h-75l4 131l-111 -69l-37 65l115 61l-115 62l37 65l111 -69l-4 130h75l-4 -130l111 69l37 -65l-115 -62l115 -61z" />
<glyph unicode="+" d="M314 225v-168h-95v168h-168v95h168v167h95v-167h168v-95h-168z" />
<glyph unicode="," horiz-adv-x="272" d="M78 -155v271h116v-176z" />
<glyph unicode="-" horiz-adv-x="426" d="M67 230v95h292v-95h-292z" />
<glyph unicode="." horiz-adv-x="278" d="M78 0v122h122v-122h-122z" />
<glyph unicode="/" horiz-adv-x="380" d="M98 -74h-98l285 860h98z" />
<glyph unicode="0" d="M472 198q0 -48 -16.5 -85.5t-44.5 -64t-65.5 -40.5t-79.5 -14t-79.5 14t-65.5 40.5t-44 64t-16 85.5v316q0 48 16 85.5t44 64t65.5 40.5t79.5 14t79.5 -14t65.5 -40.5t44.5 -64t16.5 -85.5v-316zM370 511q0 52 -27.5 84t-76.5 32t-76 -32t-27 -84v-310q0 -52 27 -84 t76 -32t76.5 32t27.5 84v310z" />
<glyph unicode="1" d="M253 0v601l-139 -122v113l139 120h102v-712h-102z" />
<glyph unicode="2" d="M63 0v91l274 333q20 25 29 46.5t9 48.5q0 48 -27 78t-77 30q-20 0 -39 -6t-33.5 -19t-23.5 -34t-9 -51h-102q0 45 15.5 82.5t43 63.5t65.5 40.5t83 14.5q46 0 84 -14t65 -40t42 -63t15 -83q0 -47 -17 -80.5t-50 -73.5l-223 -273h290v-91h-414z" />
<glyph unicode="3" d="M481 200q0 -51 -17.5 -90t-47 -65t-69 -39t-84.5 -13q-43 0 -81.5 11.5t-68.5 36t-48.5 62.5t-19.5 90h102q1 -29 11.5 -49t26 -33.5t36 -19.5t42.5 -6q50 0 83 30.5t33 87.5q0 54 -29.5 85.5t-89.5 31.5h-17v89h17q56 0 82 29.5t26 78.5q0 54 -30.5 82t-74.5 28 q-47 0 -75 -27t-32 -75h-102q2 45 19 81t45 61t65 38.5t80 13.5q45 0 83 -14.5t65.5 -41t43 -63t15.5 -80.5q0 -57 -23.5 -94.5t-65.5 -57.5q46 -20 73 -61t27 -107z" />
<glyph unicode="4" d="M422 107v-107h-99v107h-288v95l251 510h110l-250 -510h177v166h99v-166h76v-95h-76z" />
<glyph unicode="5" d="M479 238q0 -57 -10.5 -103.5t-49.5 -85.5q-24 -24 -61 -40t-89 -16q-51 0 -90 16t-62 39q-29 29 -40 63.5t-14 72.5h102q6 -48 31 -73.5t73 -25.5q46 0 74 28q23 23 28.5 56t5.5 69q0 32 -4.5 59t-16.5 47t-32 31.5t-51 11.5q-44 0 -68.5 -19t-32.5 -45h-93v389h384v-91 h-292v-188q18 19 48.5 30t69.5 11q42 0 74 -12t54 -34q20 -20 32.5 -43t19 -47t8.5 -49.5t2 -50.5z" />
<glyph unicode="6" d="M477 211q0 -49 -15.5 -89t-43.5 -68.5t-66.5 -44t-84.5 -15.5t-85 14.5t-67 42.5t-43.5 67t-15.5 89q0 44 15 86t38 89l162 330h109l-153 -306q14 6 30 8.5t33 2.5q39 0 73 -14.5t59.5 -41.5t40 -65t14.5 -85zM375 209q0 53 -29 88t-80 35q-48 0 -78 -32.5t-30 -90.5 q0 -57 30 -90.5t78 -33.5t78.5 33.5t30.5 90.5z" />
<glyph unicode="7" d="M249 0h-110l239 621h-217v-112h-98v203h424v-91z" />
<glyph unicode="8" d="M486 201q0 -48 -17 -86.5t-47 -65.5t-70 -41t-86 -14t-86 14t-69.5 41t-46.5 65.5t-17 86.5q0 32 8.5 58t22 46.5t31 36t36.5 26.5q-35 21 -60.5 58.5t-25.5 94.5q0 45 16 81t44 62t65.5 40t81.5 14q43 0 81 -14t66.5 -40t44.5 -62t16 -81q0 -57 -25.5 -94.5t-60.5 -58.5 q19 -11 36.5 -26.5t31 -36t22 -46.5t8.5 -58zM383 203q0 25 -9 46.5t-25 37.5t-37 25.5t-46 9.5t-46.5 -9.5t-37 -25.5t-24.5 -37.5t-9 -46.5t9 -46.5t24.5 -37.5t37 -25t46.5 -9t46 9t37 25t25 37.5t9 46.5zM372 518q0 47 -29.5 78t-76.5 31t-76 -31t-29 -78q0 -48 29 -78 t76 -30t76.5 30t29.5 78z" />
<glyph unicode="9" d="M477 505q0 -44 -15 -86t-38 -89l-162 -330h-109l153 306q-14 -6 -30.5 -8.5t-33.5 -2.5q-39 0 -72.5 14.5t-59 41.5t-40 65t-14.5 85q0 49 15.5 89t43.5 68.5t66.5 44t84.5 15.5t85 -14.5t67 -42.5t43.5 -67.5t15.5 -88.5zM375 503q0 57 -30.5 90.5t-78.5 33.5t-78 -33.5 t-30 -90.5q0 -53 28.5 -88t79.5 -35q48 0 78.5 32.5t30.5 90.5z" />
<glyph unicode=":" horiz-adv-x="303" d="M104 285v122h121v-122h-121zM104 0v122h121v-122h-121z" />
<glyph unicode=";" horiz-adv-x="303" d="M106 -155v271h116v-176zM104 285v122h121v-122h-121z" />
<glyph unicode="&#x3c;" d="M82 232v91l369 177v-108l-245 -115l245 -114v-108z" />
<glyph unicode="=" d="M51 327v95h431v-95h-431zM51 133v95h431v-95h-431z" />
<glyph unicode="&#x3e;" d="M82 55v108l245 114l-245 115v108l369 -177v-91z" />
<glyph unicode="?" horiz-adv-x="511" d="M470 527q0 -36 -14 -65.5t-34 -57.5l-77 -108q-8 -11 -13 -26.5t-5 -27.5v-30h-102v35q0 31 8 53t26 46l78 105q14 18 22.5 36.5t8.5 39.5q0 42 -27 71t-71 29q-47 0 -72 -30t-25 -71h-102q0 42 15 77.5t42 61t63.5 39.5t78.5 14q41 0 77.5 -13.5t63.5 -38t43 -60 t16 -79.5zM219 0v109h113v-109h-113z" />
<glyph unicode="@" horiz-adv-x="877" d="M793 408q0 -44 -15.5 -90t-43.5 -83.5t-67.5 -61t-87.5 -23.5q-38 0 -57.5 18.5t-23.5 43.5q-12 -23 -38.5 -42.5t-68.5 -19.5q-30 0 -54 12.5t-41 34.5t-26 52.5t-9 65.5q0 42 10 84.5t31 76t52.5 55t73.5 21.5q23 0 40 -5.5t29 -13.5t19 -18t11 -19l8 48h85l-34 -249 q-1 -9 -2 -20t0.5 -21.5t6 -17.5t14.5 -7q23 0 42 17t32 43.5t20 57.5t7 60q0 55 -21 97.5t-57 71.5t-83 44.5t-99 15.5q-57 0 -106 -21.5t-85 -59t-57 -88.5t-21 -111q0 -66 22 -118t60 -89t88.5 -56.5t107.5 -19.5q32 0 64.5 4t61.5 10.5t53 15.5t41 19l36 -68 q-47 -29 -116 -44.5t-145 -15.5q-74 0 -140.5 25t-116.5 72t-79 114t-29 151q0 77 29.5 143.5t79.5 115t116 76t139 27.5q69 0 131.5 -22t110 -62.5t75 -98t27.5 -127.5zM510 400q0 32 -22.5 52.5t-55.5 20.5q-20 0 -34.5 -16t-24 -38.5t-14.5 -47.5t-5 -44q0 -17 2 -34.5 t7.5 -31.5t16 -23t27.5 -9q25 0 44.5 14t32.5 38t19.5 55t6.5 64z" />
<glyph unicode="A" horiz-adv-x="625" d="M502 0l-49 143h-281l-49 -143h-115l261 712h87l261 -712h-115zM315 551l-111 -316h219z" />
<glyph unicode="B" horiz-adv-x="663" d="M596 201q0 -49 -16 -86.5t-44.5 -63t-68 -38.5t-86.5 -13h-288v712h277q100 0 157.5 -52t57.5 -143q0 -29 -8.5 -53.5t-22 -44t-30.5 -33t-35 -20.5q21 -8 40 -22.5t34 -34.5t24 -47t9 -61zM488 206q0 48 -30 78t-87 30h-170v-217h170q57 0 87 30.5t30 78.5zM477 513 q0 50 -32 76t-84 26h-160v-204h160q52 0 84 26t32 76z" />
<glyph unicode="C" horiz-adv-x="628" d="M577 213q-9 -53 -31.5 -94t-56 -69t-76 -42t-90.5 -14q-56 0 -103 19.5t-84 56.5q-26 26 -40 55t-20.5 63t-7.5 75.5t-1 92.5t1 92.5t7.5 75.5t20.5 63t40 55q37 37 84 56.5t103 19.5q99 0 167 -56t87 -163h-110q-13 54 -48.5 88t-95.5 34q-32 0 -59 -11.5t-46 -31.5 q-13 -14 -21.5 -30.5t-13 -41t-6.5 -60.5t-2 -90t2 -90t6.5 -60.5t13 -41t21.5 -30.5q19 -20 46 -31.5t59 -11.5q60 0 96 34t49 88h109v0z" />
<glyph unicode="D" horiz-adv-x="666" d="M599 361q0 -39 -0.5 -79t-6.5 -78t-21 -73t-44 -64q-34 -34 -81 -50.5t-103 -16.5h-250v712h250q56 0 103 -16.5t81 -50.5q29 -29 44 -62.5t21 -70t6.5 -74.5t0.5 -77zM491 361q0 74 -5 124.5t-33 81.5q-44 48 -121 48h-131v-518h131q77 0 121 48q28 31 33 86.5t5 129.5z " />
<glyph unicode="E" horiz-adv-x="603" d="M93 0v712h455v-97h-347v-208h296v-96h-296v-214h347v-97h-455z" />
<glyph unicode="F" horiz-adv-x="585" d="M201 615v-217h296v-97h-296v-301h-108v712h455v-97h-347z" />
<glyph unicode="G" horiz-adv-x="649" d="M583 276q0 -69 -14.5 -116t-49.5 -85q-41 -43 -90 -62t-106 -19q-56 0 -103 19.5t-84 56.5q-26 26 -40 55t-20.5 63t-7.5 75.5t-1 92.5t1 92.5t7.5 75.5t20.5 63t40 55q37 37 83.5 56.5t103.5 19.5t101.5 -17.5t77 -47.5t52.5 -70t28 -86h-109q-14 59 -52 91.5t-98 32.5 q-32 0 -59 -12t-46 -32q-13 -14 -21.5 -30.5t-13 -41t-6.5 -60t-2 -89.5t2 -90t6.5 -60.5t13 -41t21.5 -30.5q19 -20 46 -31.5t59 -11.5q35 0 65 13t51 37q20 23 28 50t8 62v40h-152v92h260v-109v0z" />
<glyph unicode="H" horiz-adv-x="691" d="M490 0v311h-289v-311h-108v712h108v-304h289v304h108v-712h-108z" />
<glyph unicode="I" horiz-adv-x="294" d="M93 0v712h108v-712h-108z" />
<glyph unicode="J" horiz-adv-x="506" d="M423 225q0 -56 -18.5 -99t-51 -72t-75.5 -44.5t-92 -15.5q-55 0 -95.5 16t-77.5 53l72 71q19 -19 40.5 -31t60.5 -12q60 0 94.5 36t34.5 106v479h108v-487v0z" />
<glyph unicode="K" horiz-adv-x="658" d="M521 0l-200 351l-120 -144v-207h-108v712h108v-358l291 358h132l-231 -279l255 -433h-127z" />
<glyph unicode="L" horiz-adv-x="574" d="M93 0v712h108v-615h343v-97h-451z" />
<glyph unicode="M" horiz-adv-x="813" d="M613 0v476l-164 -347h-80l-168 347v-476h-108v712h108l208 -443l204 443h108v-712h-108z" />
<glyph unicode="N" horiz-adv-x="722" d="M530 0l-329 501v-501h-108v712h99l329 -500v500h108v-712h-99z" />
<glyph unicode="O" horiz-adv-x="646" d="M579 356q0 -51 -1 -92.5t-7 -75.5t-20 -63t-40 -55q-37 -37 -84 -56.5t-104 -19.5t-103.5 19.5t-83.5 56.5q-26 26 -40 55t-20.5 63t-7.5 75.5t-1 92.5t1 92.5t7.5 75.5t20.5 63t40 55q37 37 83.5 56.5t103.5 19.5t104 -19.5t84 -56.5q26 -26 40 -55t20 -63t7 -75.5 t1 -92.5zM471 356q0 54 -1.5 89.5t-6 60t-13 41t-21.5 30.5q-19 20 -46.5 32t-59.5 12t-59.5 -12t-46.5 -32q-13 -14 -21.5 -30.5t-13 -41t-6 -60t-1.5 -89.5t1.5 -89.5t6 -60t13 -41t21.5 -30.5q19 -20 46.5 -32t59.5 -12t59.5 12t46.5 32q13 14 21.5 30.5t13 41t6 60 t1.5 89.5z" />
<glyph unicode="P" horiz-adv-x="629" d="M591 496q0 -47 -16 -86.5t-46 -68t-72 -45t-94 -16.5h-162v-280h-108v712h270q52 0 94 -16.5t72 -45t46 -68.5t16 -86zM483 496q0 57 -34.5 88t-91.5 31h-156v-237h156q57 0 91.5 30.5t34.5 87.5z" />
<glyph unicode="Q" horiz-adv-x="646" d="M543 -32l-71 71q-31 -22 -69 -33.5t-80 -11.5q-57 0 -103.5 19.5t-83.5 56.5q-26 26 -40 55t-20.5 63t-7.5 75.5t-1 92.5t1 92.5t7.5 75.5t20.5 63t40 55q37 37 83.5 56.5t103.5 19.5t104 -19.5t84 -56.5q26 -26 40 -55t20 -63t7 -75.5t1 -92.5q0 -45 -0.5 -82.5 t-5 -68.5t-13.5 -57.5t-27 -50.5l70 -69zM471 356q0 54 -1.5 89.5t-6 60t-13 41t-21.5 30.5q-19 20 -46.5 32t-59.5 12t-59.5 -12t-46.5 -32q-13 -14 -21.5 -30.5t-13 -41t-6 -60t-1.5 -89.5t1.5 -89.5t6 -60t13 -41t21.5 -30.5q19 -20 46.5 -32t59.5 -12q41 0 73 23l-75 75 l60 60l69 -69q14 27 17.5 67t3.5 109z" />
<glyph unicode="R" horiz-adv-x="655" d="M486 0l-150 300h-135v-300h-108v712h276q51 0 91.5 -15.5t69.5 -43t44.5 -66t15.5 -83.5q0 -77 -41 -124.5t-101 -64.5l164 -315h-126zM482 503q0 53 -33.5 82.5t-87.5 29.5h-160v-223h160q54 0 87.5 29t33.5 82z" />
<glyph unicode="S" horiz-adv-x="590" d="M538 203q0 -49 -19 -88t-53 -66t-81 -41t-103 -14q-81 0 -141 21t-111 73l72 71q39 -39 83 -53.5t99 -14.5q70 0 108.5 28.5t38.5 80.5q0 49 -28 74q-14 13 -30 19t-48 11l-84 12q-87 12 -135 57q-52 49 -52 136q0 46 16.5 84.5t47 66.5t74.5 43t100 15q71 0 123 -19 t98 -62l-69 -68q-33 32 -71.5 43.5t-83.5 11.5q-63 0 -96.5 -31.5t-33.5 -79.5q0 -20 6.5 -36.5t20.5 -29.5q28 -25 80 -33l81 -12q50 -8 80 -20.5t53 -32.5q29 -26 43.5 -63t14.5 -83z" />
<glyph unicode="T" horiz-adv-x="560" d="M334 615v-615h-108v615h-196v97h500v-97h-196z" />
<glyph unicode="U" horiz-adv-x="675" d="M593 240q0 -55 -19.5 -100.5t-54 -77.5t-81.5 -50t-101 -18t-101 18t-81 50t-53.5 77.5t-19.5 100.5v472h108v-467q0 -72 40 -113t107 -41t107.5 41t40.5 113v467h108v-472v0z" />
<glyph unicode="V" horiz-adv-x="564" d="M323 0h-84l-234 712h112l164 -518l164 518h114z" />
<glyph unicode="W" horiz-adv-x="871" d="M674 0h-94l-145 499l-144 -499h-94l-186 712h114l124 -509l143 509h87l143 -509l124 509h114z" />
<glyph unicode="X" horiz-adv-x="578" d="M443 0l-155 273l-154 -273h-124l220 365l-206 347h124l140 -255l141 255h124l-206 -347l221 -365h-125z" />
<glyph unicode="Y" horiz-adv-x="544" d="M326 293v-293h-108v293l-213 419h118l149 -313l149 313h118z" />
<glyph unicode="Z" horiz-adv-x="552" d="M48 0v93l329 522h-315v97h442v-88l-331 -527h331v-97h-456z" />
<glyph unicode="[" horiz-adv-x="347" d="M86 -74v860h218v-91h-116v-678h116v-91h-218z" />
<glyph unicode="\" horiz-adv-x="380" d="M282 -74l-282 852h98l282 -852h-98z" />
<glyph unicode="]" horiz-adv-x="347" d="M43 -74v90h118v680h-118v90h218v-860h-218z" />
<glyph unicode="^" horiz-adv-x="571" d="M397 401l-112 207l-112 -207h-106l172 318h93l171 -318h-106z" />
<glyph unicode="_" horiz-adv-x="571" d="M0 -172v70h571v-70h-571z" />
<glyph unicode="`" horiz-adv-x="500" d="M225 599l-111 162h113l75 -162h-77z" />
<glyph unicode="a" horiz-adv-x="530" d="M354 0v46q-28 -28 -58 -40t-77 -12q-48 0 -80.5 11.5t-55.5 34.5q-40 42 -40 109q0 64 43.5 105t131.5 41h134v36q0 48 -25.5 71.5t-85.5 23.5q-42 0 -66 -11t-45 -38l-67 63q36 42 77.5 57.5t104.5 15.5q209 0 209 -174v-339h-100zM352 224h-119q-45 0 -68 -19t-23 -54 t22.5 -53.5t70.5 -18.5q29 0 52 4.5t43 24.5q22 22 22 75v41z" />
<glyph unicode="b" horiz-adv-x="553" d="M496 254q0 -29 -1.5 -59t-7.5 -58.5t-17.5 -53.5t-30.5 -44q-21 -21 -53.5 -33t-70.5 -12q-42 0 -73.5 12.5t-60.5 47.5v-54h-100v712h102v-256q28 33 60 45t73 12q38 0 70 -12t53 -33q19 -19 30.5 -44t17.5 -53t7.5 -58t1.5 -59zM394 254q0 34 -3.5 64.5t-14.5 53.5 t-32 36.5t-55 13.5q-35 0 -55.5 -13.5t-32 -36.5t-15 -53.5t-3.5 -64.5t3.5 -64.5t15 -54t32 -37t55.5 -13.5q34 0 55 13.5t32 37t14.5 54t3.5 64.5z" />
<glyph unicode="c" horiz-adv-x="485" d="M448 66q-36 -38 -75 -55t-92 -17q-43 0 -83.5 14t-72 45t-51 80.5t-19.5 120.5t19.5 120.5t51 80t72 44.5t83.5 14q53 0 92 -16.5t75 -54.5l-70 -68q-24 26 -45.5 37t-51.5 11q-60 0 -94 -45q-17 -21 -23.5 -49.5t-6.5 -73.5t6.5 -74t23.5 -50q34 -45 94 -45 q30 0 51.5 11t45.5 37l70 -67v0z" />
<glyph unicode="d" horiz-adv-x="553" d="M372 0v54q-29 -35 -60.5 -47.5t-73.5 -12.5q-38 0 -70.5 12t-53.5 33q-19 19 -30.5 44t-17.5 53.5t-7.5 58.5t-1.5 59t1.5 59t7.5 58t17.5 53t30.5 44q21 21 53 33t70 12q41 0 73 -12t60 -45v256h102v-712h-100zM370 254q0 34 -3.5 64.5t-14.5 53.5t-32 36.5t-55 13.5 q-35 0 -55.5 -13.5t-32 -36.5t-15 -53.5t-3.5 -64.5t3.5 -64.5t15 -54t32 -37t55.5 -13.5q34 0 55 13.5t32 37t14.5 54t3.5 64.5z" />
<glyph unicode="e" horiz-adv-x="539" d="M156 224q0 -66 33 -104t96 -38q43 0 69.5 12.5t53.5 39.5l65 -61q-20 -20 -39.5 -34.5t-42 -24.5t-49 -15t-59.5 -5q-48 0 -89.5 13.5t-72 44t-48.5 80.5t-18 122q0 124 58.5 191.5t156.5 67.5q51 0 91 -18t67.5 -50t42 -77t14.5 -99v-45h-329zM384 295q-1 23 -3.5 37.5 t-10.5 31.5q-12 29 -38 46.5t-62 17.5t-62.5 -17.5t-38.5 -46.5q-8 -17 -10 -31.5t-3 -37.5h228z" />
<glyph unicode="f" horiz-adv-x="328" d="M199 420v-420h-102v420h-58v78h58v78q0 27 8.5 52.5t25.5 45t43 31.5t62 12h64v-87h-45q-29 0 -42.5 -15.5t-13.5 -43.5v-73h101v-78h-101z" />
<glyph unicode="g" horiz-adv-x="549" d="M468 3q0 -47 -15 -86t-43 -67.5t-68 -44.5t-91 -16q-58 0 -98.5 15t-80.5 52l65 65q24 -23 48 -34t62 -11q32 0 54.5 10.5t37 28.5t21 41t6.5 49v65q-28 -33 -60 -45.5t-71 -12.5q-38 0 -69 12t-52 33q-37 37 -47 89t-10 117t10 117t47 89q44 44 122 44q41 0 72.5 -12.5 t60.5 -47.5v54h99v-504zM366 263q0 30 -3 58.5t-14 51t-31.5 36t-54.5 13.5q-35 0 -55.5 -13.5t-31 -36t-14 -51t-3.5 -58.5t3.5 -58.5t14 -51t31 -36t55.5 -13.5q34 0 54.5 13.5t31.5 36t14 51t3 58.5z" />
<glyph unicode="h" horiz-adv-x="566" d="M388 0v311q0 58 -29.5 84.5t-72.5 26.5t-73 -27t-30 -84v-311h-102v712h102v-256q26 29 59.5 43t71.5 14q42 0 75 -13.5t55.5 -38t34 -59t11.5 -75.5v-327h-102z" />
<glyph unicode="i" horiz-adv-x="264" d="M81 0v507h102v-507h-102zM78 607v108h108v-108h-108z" />
<glyph unicode="j" horiz-adv-x="264" d="M183 -67q0 -28 -8 -53.5t-25 -44.5t-43.5 -30.5t-62.5 -11.5h-63v87h45q31 0 43 15t12 44v568h102v-574zM78 607v108h108v-108h-108z" />
<glyph unicode="k" horiz-adv-x="548" d="M400 0l-142 234l-75 -85v-149h-102v712h102v-439l197 234h124l-176 -199l198 -308h-126z" />
<glyph unicode="l" horiz-adv-x="311" d="M217 0q-36 0 -62.5 11.5t-43.5 30.5t-25 44.5t-8 53.5v572h102v-566q0 -29 12 -44t43 -15h45v-87h-63z" />
<glyph unicode="m" horiz-adv-x="877" d="M699 0v309q0 59 -29.5 86t-72.5 27q-21 0 -40 -6.5t-33.5 -20t-23 -34t-8.5 -47.5v-314h-102v309q0 59 -29.5 86t-72.5 27t-74 -27.5t-31 -85.5v-309h-102v507h100v-51q26 28 61.5 42.5t73.5 14.5q96 0 144 -74q61 74 159 74q39 0 72 -12t56 -34q29 -29 41.5 -64.5 t12.5 -78.5v-324h-102z" />
<glyph unicode="n" horiz-adv-x="568" d="M390 0v309q0 59 -29.5 86t-72.5 27t-74 -27.5t-31 -85.5v-309h-102v507h100v-51q26 29 61.5 43t73.5 14q39 0 70.5 -12t54.5 -34q29 -29 40 -64.5t11 -78.5v-324h-102z" />
<glyph unicode="o" horiz-adv-x="537" d="M480 254q0 -65 -12 -113.5t-48 -86.5q-25 -26 -62.5 -43t-89.5 -17t-89 17t-62 43q-36 38 -48 86.5t-12 113.5q0 64 12 112.5t48 86.5q25 26 62 43t89 17t89.5 -17t62.5 -43q36 -38 48 -86.5t12 -112.5zM378 254q0 42 -6 79t-29 60q-29 29 -75 29q-45 0 -74 -29 q-23 -23 -29 -60t-6 -79t6 -79t29 -60q30 -30 74 -30q45 0 75 30q23 23 29 60t6 79z" />
<glyph unicode="p" horiz-adv-x="553" d="M496 254q0 -29 -1.5 -59t-7.5 -58.5t-17.5 -53.5t-30.5 -44q-21 -21 -53 -33t-70 -12q-41 0 -73 12.5t-60 45.5v-257h-102v712h100v-54q29 35 60.5 47.5t73.5 12.5q38 0 70.5 -12t53.5 -33q19 -19 30.5 -44t17.5 -53t7.5 -58t1.5 -59zM394 254q0 34 -3.5 64.5t-14.5 53.5 t-32 36.5t-55 13.5q-35 0 -55.5 -13.5t-32 -36.5t-15 -53.5t-3.5 -64.5t3.5 -64.5t15 -54t32 -37t55.5 -13.5q34 0 55 13.5t32 37t14.5 54t3.5 64.5z" />
<glyph unicode="q" horiz-adv-x="553" d="M370 -205v257q-28 -33 -60 -45.5t-73 -12.5q-38 0 -70 12t-53 33q-19 19 -30.5 44t-17.5 53.5t-7.5 58.5t-1.5 59t1.5 59t7.5 58t17.5 53t30.5 44q21 21 53.5 33t70.5 12q42 0 73.5 -12.5t60.5 -47.5v54h100v-712h-102zM370 254q0 34 -3.5 64.5t-14.5 53.5t-32 36.5 t-55 13.5q-35 0 -55.5 -13.5t-32 -36.5t-15 -53.5t-3.5 -64.5t3.5 -64.5t15 -54t32 -37t55.5 -13.5q34 0 55 13.5t32 37t14.5 54t3.5 64.5z" />
<glyph unicode="r" horiz-adv-x="439" d="M360 388q-17 17 -33.5 25.5t-42.5 8.5q-42 0 -71.5 -30.5t-29.5 -83.5v-308h-102v507h100v-55q20 27 56 44t79 17q37 0 66 -11t55 -37z" />
<glyph unicode="s" horiz-adv-x="499" d="M456 155q0 -40 -16 -70t-44 -50.5t-67 -30.5t-84 -10q-62 0 -115 14.5t-98 58.5l67 67q31 -32 69.5 -42.5t76.5 -10.5q47 0 79 17t32 53q0 26 -15.5 41.5t-52.5 18.5l-81 7q-72 6 -111 39.5t-39 100.5q0 37 15 66t41 48.5t60.5 30t74.5 10.5q57 0 105 -13t83 -44l-64 -65 q-24 20 -56.5 28.5t-68.5 8.5q-46 0 -69 -18t-23 -47q0 -23 14.5 -38.5t55.5 -19.5l80 -7q72 -6 111.5 -40.5t39.5 -102.5z" />
<glyph unicode="t" horiz-adv-x="342" d="M232 0q-36 0 -62 12t-43 31.5t-25.5 45t-8.5 52.5v279h-58v78h58v154h102v-154h98v-78h-98v-274q0 -28 13.5 -43.5t42.5 -15.5h42v-87h-61z" />
<glyph unicode="u" horiz-adv-x="568" d="M387 0v51q-26 -29 -61.5 -43t-73.5 -14q-39 0 -70.5 12t-54.5 34q-29 29 -40 64.5t-11 78.5v324h102v-309q0 -59 29.5 -86t72.5 -27q21 0 40.5 6.5t33.5 20.5t22.5 35.5t8.5 50.5v309h102v-507h-100z" />
<glyph unicode="v" horiz-adv-x="471" d="M277 0h-83l-186 507h108l120 -357l119 357h108z" />
<glyph unicode="w" horiz-adv-x="743" d="M577 0h-87l-119 354l-118 -354h-88l-157 507h108l98 -357l118 357h79l117 -357l98 357h109z" />
<glyph unicode="x" horiz-adv-x="503" d="M358 0l-106 173l-107 -173h-123l174 259l-167 248h123l100 -165l99 165h123l-166 -248l173 -259h-123z" />
<glyph unicode="y" horiz-adv-x="468" d="M240 -101q-14 -40 -37 -63q-21 -21 -48 -29t-56 -8h-41v92h26q32 0 47 11.5t26 42.5l28 79l-177 483h108l121 -357l118 357h109z" />
<glyph unicode="z" horiz-adv-x="469" d="M43 0v81l252 335h-238v91h364v-81l-254 -335h254v-91h-378z" />
<glyph unicode="{" horiz-adv-x="407" d="M291 -74q-38 0 -64 8.5t-43 25.5q-20 20 -28 44.5t-8 60.5v167q0 42 -18 60q-8 8 -19.5 13.5t-28.5 5.5h-37v90h37q17 0 28.5 5.5t19.5 13.5q18 18 18 60v167q0 36 8 60.5t28 44.5q17 17 43 25.5t64 8.5h71v-91h-39q-24 0 -37 -3t-21 -11t-11.5 -23t-3.5 -41v-161 q0 -24 -6 -41t-15 -28t-21 -18.5t-24 -12.5q12 -5 24 -12.5t21 -18.5t15 -28t6 -41v-161q0 -26 3.5 -41t11.5 -23t21 -11t37 -3h39v-91h-71z" />
<glyph unicode="|" horiz-adv-x="338" d="M118 -74v860h102v-860h-102z" />
<glyph unicode="}" horiz-adv-x="407" d="M326 311q-17 0 -29 -5.5t-20 -13.5q-18 -18 -18 -60v-167q0 -36 -8 -60.5t-28 -44.5q-17 -17 -43 -25.5t-64 -8.5h-71v91h39q24 0 37 3t21 11t11.5 23t3.5 41v161q0 24 6 41t15.5 28t21.5 18.5t24 12.5q-12 5 -24 12.5t-21.5 18.5t-15.5 28t-6 41v161q0 26 -3.5 41 t-11.5 23t-21 11t-37 3h-39v91h71q38 0 64 -8.5t43 -25.5q20 -20 28 -44.5t8 -60.5v-167q0 -42 18 -60q8 -8 20 -13.5t29 -5.5h36v-90h-36z" />
<glyph unicode="~" horiz-adv-x="574" d="M531 280q-22 -22 -40.5 -37t-36 -24t-34.5 -13t-37 -4q-29 0 -55 9t-57 24q-21 11 -39.5 17.5t-39.5 6.5t-39 -8t-46 -36l-64 64q22 22 40.5 37t35.5 24t34 13t37 4q29 0 54.5 -9t56.5 -24q21 -11 40 -17.5t40 -6.5q10 0 19.5 1.5t19 6t21 13.5t25.5 23l65 -64v0z" />
<glyph unicode="&#xa4;" horiz-adv-x="665" d="M530 14l-74 74q-26 -18 -57.5 -28t-66.5 -10t-66.5 10t-57.5 28l-73 -74l-67 67l73 74q-18 26 -28 57.5t-10 66.5t10 66.5t28 57.5l-73 73l67 67l73 -73q54 37 124 37t124 -37l74 73l67 -67l-74 -73q18 -26 28 -57.5t10 -66.5t-10 -66.5t-28 -57.5l74 -74zM468 279 q0 28 -10.5 52.5t-29 43t-43.5 29t-53 10.5t-53 -10.5t-43.5 -29t-29 -43t-10.5 -52.5t10.5 -53t29 -43.5t43.5 -29t53 -10.5t53 10.5t43.5 29t29 43.5t10.5 53z" />
<glyph unicode="&#xa6;" horiz-adv-x="344" d="M118 436v350h102v-350h-102zM118 -74v350h102v-350h-102z" />
<glyph unicode="&#xa7;" horiz-adv-x="543" d="M472 264q0 -29 -9 -54t-23 -44.5t-31 -34t-34 -23.5q38 -17 63 -50.5t25 -90.5q0 -43 -15.5 -76t-42 -55.5t-61 -34.5t-72.5 -12q-37 0 -71 10t-61 31t-44 53t-18 76h100q3 -37 27.5 -58t66.5 -21q43 0 67 22.5t24 61.5q0 27 -18 51t-60 37l-70 21q-69 21 -105 66 t-36 120q0 29 8.5 54t22.5 44.5t31.5 34t34.5 23.5q-37 18 -60.5 48.5t-23.5 85.5q0 35 12.5 65.5t36.5 53.5t58.5 36.5t78.5 13.5t78.5 -12.5t58.5 -34t37 -52t14 -66.5h-98q-3 41 -27.5 58.5t-62.5 17.5q-42 0 -65 -20t-23 -57q0 -31 20 -50.5t55 -30.5l70 -21 q69 -21 105.5 -66.5t36.5 -119.5zM372 261q0 52 -29 80q-14 13 -30.5 20.5t-39.5 7.5q-45 0 -71 -28q-14 -14 -21 -32.5t-7 -47.5t8 -47.5t20 -31.5q26 -28 71 -28q44 0 70 28q12 13 20.5 31t8.5 48z" />
<glyph unicode="&#xa8;" horiz-adv-x="500" d="M312 604v108h92v-108h-92zM96 604v108h92v-108h-92z" />
<glyph unicode="&#xa9;" horiz-adv-x="862" d="M793 356q0 -75 -28.5 -141t-77.5 -115t-115 -77.5t-141 -28.5t-141 28.5t-115 77.5t-77.5 115t-28.5 141t28.5 141t77.5 115t115 77.5t141 28.5t141 -28.5t115 -77.5t77.5 -115t28.5 -141zM720 356q0 62 -22.5 115.5t-61.5 93.5t-92 62.5t-113 22.5t-113 -22.5t-92 -62.5 t-61.5 -93.5t-22.5 -115.5t22.5 -115.5t61.5 -93.5t92 -62.5t113 -22.5t113 22.5t92 62.5t61.5 93.5t22.5 115.5zM568 208q-29 -26 -59 -39t-72 -13q-41 0 -74 14t-56 40t-36 63t-13 83t13 83t36 63t56 40t74 14q42 0 72 -13t59 -39l-46 -47q-23 20 -41 27.5t-44 7.5 q-57 0 -82.5 -38.5t-25.5 -97.5t25.5 -97.5t82.5 -38.5q26 0 44 7.5t41 27.5z" />
<glyph unicode="&#xab;" horiz-adv-x="592" d="M37 272l230 229v-123l-107 -106l107 -107v-123zM290 272l230 229v-123l-108 -106l108 -107v-123z" />
<glyph unicode="&#xac;" d="M389 98v141h-341v95h436v-236h-95z" />
<glyph unicode="&#xae;" horiz-adv-x="862" d="M793 356q0 -75 -28.5 -141t-77.5 -115t-115 -77.5t-141 -28.5t-141 28.5t-115 77.5t-77.5 115t-28.5 141t28.5 141t77.5 115t115 77.5t141 28.5t141 -28.5t115 -77.5t77.5 -115t28.5 -141zM720 356q0 62 -22.5 116t-61.5 93.5t-91.5 62.5t-113.5 23t-114 -23t-92 -62.5 t-61.5 -93.5t-22.5 -116t22.5 -116t61.5 -93.5t92 -62.5t114 -23t113.5 23t91.5 62.5t61.5 93.5t22.5 116zM507 161l-80 155h-50v-155h-72v391h147q28 0 51 -9.5t39.5 -26t26 -38.5t9.5 -46q0 -42 -22.5 -68.5t-54.5 -37.5l87 -165h-81zM507 432q0 25 -17.5 42t-46.5 17h-66 v-118h66q29 0 46.5 17t17.5 42z" />
<glyph unicode="&#xaf;" horiz-adv-x="500" d="M95 622v73h310v-73h-310z" />
<glyph unicode="&#xb0;" horiz-adv-x="471" d="M410 549q0 -36 -14 -67.5t-37.5 -55.5t-55.5 -37.5t-68 -13.5t-67.5 13.5t-55.5 37.5t-37.5 55.5t-13.5 67.5t13.5 68t37.5 55.5t55.5 37.5t67.5 14t68 -14t55.5 -37.5t37.5 -55.5t14 -68zM326 549q0 19 -7 36t-19.5 30t-29 20t-35.5 7q-38 0 -64 -27t-26 -66t26 -65.5 t64 -26.5t64.5 26.5t26.5 65.5z" />
<glyph unicode="&#xb1;" d="M314 316v-169h-95v169h-168v95h168v168h95v-168h168v-95h-168zM51 0v95h431v-95h-431z" />
<glyph unicode="&#xb4;" horiz-adv-x="500" d="M275 599h-77l75 162h113z" />
<glyph unicode="&#xb5;" horiz-adv-x="569" d="M387 0v51q-26 -29 -61 -43t-73 -14q-45 0 -75 25v-224h-102v712h102v-309q0 -59 30 -86t73 -27t73.5 27t30.5 86v309h102v-507h-100z" />
<glyph unicode="&#xb6;" horiz-adv-x="637" d="M442 -205v820h-108v-820h-102v522q-41 0 -76.5 16t-61.5 43t-41 62.5t-15 74.5q0 45 16 81.5t45 62.5t71 40.5t93 14.5h281v-917h-102z" />
<glyph unicode="&#xb7;" horiz-adv-x="278" d="M78 217v122h122v-122h-122z" />
<glyph unicode="&#xb8;" horiz-adv-x="500" d="M268 -211h-101l70 147h82z" />
<glyph unicode="&#xbb;" horiz-adv-x="592" d="M325 42v123l107 107l-107 106v123l231 -229zM72 42v123l108 107l-108 106v123l231 -229z" />
<glyph unicode="&#xc1;" horiz-adv-x="625" d="M502 0l-49 143h-281l-49 -143h-115l261 712h87l261 -712h-115zM315 551l-111 -316h219zM335 781h-77l75 162h113z" />
<glyph unicode="&#xc2;" horiz-adv-x="625" d="M502 0l-49 143h-281l-49 -143h-115l261 712h87l261 -712h-115zM315 551l-111 -316h219zM397 781l-87 97l-87 -97h-85l129 161h86l129 -161h-85z" />
<glyph unicode="&#xc4;" horiz-adv-x="625" d="M502 0l-49 143h-281l-49 -143h-115l261 712h87l261 -712h-115zM315 551l-111 -316h219zM372 786v108h92v-108h-92zM156 786v108h92v-108h-92z" />
<glyph unicode="&#xc7;" horiz-adv-x="628" d="M577 213q-9 -53 -31.5 -94t-56 -69t-76 -42t-90.5 -14q-56 0 -103 19.5t-84 56.5q-26 26 -40 55t-20.5 63t-7.5 75.5t-1 92.5t1 92.5t7.5 75.5t20.5 63t40 55q37 37 84 56.5t103 19.5q99 0 167 -56t87 -163h-110q-13 54 -48.5 88t-95.5 34q-32 0 -59 -11.5t-46 -31.5 q-13 -14 -21.5 -30.5t-13 -41t-6.5 -60.5t-2 -90t2 -90t6.5 -60.5t13 -41t21.5 -30.5q19 -20 46 -31.5t59 -11.5q60 0 96 34t49 88h109zM323 -211h-101l70 147h82z" />
<glyph unicode="&#xc9;" horiz-adv-x="603" d="M93 0v712h455v-97h-347v-208h296v-96h-296v-214h347v-97h-455zM336 781h-77l75 162h113z" />
<glyph unicode="&#xcb;" horiz-adv-x="603" d="M93 0v712h455v-97h-347v-208h296v-96h-296v-214h347v-97h-455zM157 786v108h92v-108h-92zM373 786v108h92v-108h-92z" />
<glyph unicode="&#xcd;" horiz-adv-x="294" d="M93 0v712h108v-712h-108zM170 781h-77l75 162h113z" />
<glyph unicode="&#xce;" horiz-adv-x="294" d="M93 0v712h108v-712h-108zM235 781l-87 97l-87 -97h-85l129 161h86l129 -161h-85z" />
<glyph unicode="&#xd3;" horiz-adv-x="646" d="M579 356q0 -51 -1 -92.5t-7 -75.5t-20 -63t-40 -55q-37 -37 -84 -56.5t-104 -19.5t-103.5 19.5t-83.5 56.5q-26 26 -40 55t-20.5 63t-7.5 75.5t-1 92.5t1 92.5t7.5 75.5t20.5 63t40 55q37 37 83.5 56.5t103.5 19.5t104 -19.5t84 -56.5q26 -26 40 -55t20 -63t7 -75.5 t1 -92.5zM471 356q0 54 -1.5 89.5t-6 60t-13 41t-21.5 30.5q-19 20 -46.5 32t-59.5 12t-59.5 -12t-46.5 -32q-13 -14 -21.5 -30.5t-13 -41t-6 -60t-1.5 -89.5t1.5 -89.5t6 -60t13 -41t21.5 -30.5q19 -20 46.5 -32t59.5 -12t59.5 12t46.5 32q13 14 21.5 30.5t13 41t6 60 t1.5 89.5zM348 781h-77l75 162h113z" />
<glyph unicode="&#xd4;" horiz-adv-x="646" d="M579 356q0 -51 -1 -92.5t-7 -75.5t-20 -63t-40 -55q-37 -37 -84 -56.5t-104 -19.5t-103.5 19.5t-83.5 56.5q-26 26 -40 55t-20.5 63t-7.5 75.5t-1 92.5t1 92.5t7.5 75.5t20.5 63t40 55q37 37 83.5 56.5t103.5 19.5t104 -19.5t84 -56.5q26 -26 40 -55t20 -63t7 -75.5 t1 -92.5zM471 356q0 54 -1.5 89.5t-6 60t-13 41t-21.5 30.5q-19 20 -46.5 32t-59.5 12t-59.5 -12t-46.5 -32q-13 -14 -21.5 -30.5t-13 -41t-6 -60t-1.5 -89.5t1.5 -89.5t6 -60t13 -41t21.5 -30.5q19 -20 46.5 -32t59.5 -12t59.5 12t46.5 32q13 14 21.5 30.5t13 41t6 60 t1.5 89.5zM410 781l-87 97l-87 -97h-85l129 161h86l129 -161h-85z" />
<glyph unicode="&#xd6;" horiz-adv-x="646" d="M579 356q0 -51 -1 -92.5t-7 -75.5t-20 -63t-40 -55q-37 -37 -84 -56.5t-104 -19.5t-103.5 19.5t-83.5 56.5q-26 26 -40 55t-20.5 63t-7.5 75.5t-1 92.5t1 92.5t7.5 75.5t20.5 63t40 55q37 37 83.5 56.5t103.5 19.5t104 -19.5t84 -56.5q26 -26 40 -55t20 -63t7 -75.5 t1 -92.5zM471 356q0 54 -1.5 89.5t-6 60t-13 41t-21.5 30.5q-19 20 -46.5 32t-59.5 12t-59.5 -12t-46.5 -32q-13 -14 -21.5 -30.5t-13 -41t-6 -60t-1.5 -89.5t1.5 -89.5t6 -60t13 -41t21.5 -30.5q19 -20 46.5 -32t59.5 -12t59.5 12t46.5 32q13 14 21.5 30.5t13 41t6 60 t1.5 89.5zM385 786v108h92v-108h-92zM169 786v108h92v-108h-92z" />
<glyph unicode="&#xd7;" d="M412 69l-146 145l-145 -145l-64 63l146 146l-146 146l64 64l145 -146l146 146l64 -64l-146 -146l146 -146z" />
<glyph unicode="&#xda;" horiz-adv-x="675" d="M593 240q0 -55 -19.5 -100.5t-54 -77.5t-81.5 -50t-101 -18t-101 18t-81 50t-53.5 77.5t-19.5 100.5v472h108v-467q0 -72 40 -113t107 -41t107.5 41t40.5 113v467h108v-472zM363 781h-77l75 162h113z" />
<glyph unicode="&#xdc;" horiz-adv-x="675" d="M593 240q0 -55 -19.5 -100.5t-54 -77.5t-81.5 -50t-101 -18t-101 18t-81 50t-53.5 77.5t-19.5 100.5v472h108v-467q0 -72 40 -113t107 -41t107.5 41t40.5 113v467h108v-472zM184 786v108h92v-108h-92zM400 786v108h92v-108h-92z" />
<glyph unicode="&#xdd;" horiz-adv-x="544" d="M326 293v-293h-108v293l-213 419h118l149 -313l149 313h118zM297 781h-77l75 162h113z" />
<glyph unicode="&#xdf;" horiz-adv-x="565" d="M501 152q0 -36 -10.5 -65t-30.5 -48q-21 -20 -48 -29.5t-66 -9.5h-53v87h32q19 0 30 4t22 13q21 16 21 57v156q0 36 -18 53q-19 19 -52 19h-35v81h31q32 0 53 19t21 56q0 18 -7 33.5t-18 26.5q-25 24 -81 24q-60 0 -84 -30.5t-24 -82.5v-516h-103v522q0 49 15.5 86t44 62 t68 37t86.5 12q43 0 80.5 -10t65.5 -31t43.5 -53.5t15.5 -76.5q0 -45 -17.5 -72t-44.5 -44q32 -17 47.5 -42t15.5 -73v-165v0z" />
<glyph unicode="&#xe1;" horiz-adv-x="530" d="M354 0v46q-28 -28 -58 -40t-77 -12q-48 0 -80.5 11.5t-55.5 34.5q-40 42 -40 109q0 64 43.5 105t131.5 41h134v36q0 48 -25.5 71.5t-85.5 23.5q-42 0 -66 -11t-45 -38l-67 63q36 42 77.5 57.5t104.5 15.5q209 0 209 -174v-339h-100zM352 224h-119q-45 0 -68 -19t-23 -54 t22.5 -53.5t70.5 -18.5q29 0 52 4.5t43 24.5q22 22 22 75v41zM282 599h-77l75 162h113z" />
<glyph unicode="&#xe2;" horiz-adv-x="530" d="M354 0v46q-28 -28 -58 -40t-77 -12q-48 0 -80.5 11.5t-55.5 34.5q-40 42 -40 109q0 64 43.5 105t131.5 41h134v36q0 48 -25.5 71.5t-85.5 23.5q-42 0 -66 -11t-45 -38l-67 63q36 42 77.5 57.5t104.5 15.5q209 0 209 -174v-339h-100zM352 224h-119q-45 0 -68 -19t-23 -54 t22.5 -53.5t70.5 -18.5q29 0 52 4.5t43 24.5q22 22 22 75v41zM344 599l-87 97l-87 -97h-85l129 161h86l129 -161h-85z" />
<glyph unicode="&#xe4;" horiz-adv-x="530" d="M354 0v46q-28 -28 -58 -40t-77 -12q-48 0 -80.5 11.5t-55.5 34.5q-40 42 -40 109q0 64 43.5 105t131.5 41h134v36q0 48 -25.5 71.5t-85.5 23.5q-42 0 -66 -11t-45 -38l-67 63q36 42 77.5 57.5t104.5 15.5q209 0 209 -174v-339h-100zM352 224h-119q-45 0 -68 -19t-23 -54 t22.5 -53.5t70.5 -18.5q29 0 52 4.5t43 24.5q22 22 22 75v41zM319 604v108h92v-108h-92zM103 604v108h92v-108h-92z" />
<glyph unicode="&#xe7;" horiz-adv-x="485" d="M448 66q-36 -38 -75 -55t-92 -17q-43 0 -83.5 14t-72 45t-51 80.5t-19.5 120.5t19.5 120.5t51 80t72 44.5t83.5 14q53 0 92 -16.5t75 -54.5l-70 -68q-24 26 -45.5 37t-51.5 11q-60 0 -94 -45q-17 -21 -23.5 -49.5t-6.5 -73.5t6.5 -74t23.5 -50q34 -45 94 -45 q30 0 51.5 11t45.5 37zM268 -211h-101l70 147h82z" />
<glyph unicode="&#xe9;" horiz-adv-x="539" d="M156 224q0 -66 33 -104t96 -38q43 0 69.5 12.5t53.5 39.5l65 -61q-20 -20 -39.5 -34.5t-42 -24.5t-49 -15t-59.5 -5q-48 0 -89.5 13.5t-72 44t-48.5 80.5t-18 122q0 124 58.5 191.5t156.5 67.5q51 0 91 -18t67.5 -50t42 -77t14.5 -99v-45h-329zM384 295q-1 23 -3.5 37.5 t-10.5 31.5q-12 29 -38 46.5t-62 17.5t-62.5 -17.5t-38.5 -46.5q-8 -17 -10 -31.5t-3 -37.5h228zM298 599h-77l75 162h113z" />
<glyph unicode="&#xeb;" horiz-adv-x="539" d="M156 224q0 -66 33 -104t96 -38q43 0 69.5 12.5t53.5 39.5l65 -61q-20 -20 -39.5 -34.5t-42 -24.5t-49 -15t-59.5 -5q-48 0 -89.5 13.5t-72 44t-48.5 80.5t-18 122q0 124 58.5 191.5t156.5 67.5q51 0 91 -18t67.5 -50t42 -77t14.5 -99v-45h-329zM384 295q-1 23 -3.5 37.5 t-10.5 31.5q-12 29 -38 46.5t-62 17.5t-62.5 -17.5t-38.5 -46.5q-8 -17 -10 -31.5t-3 -37.5h228zM335 604v108h92v-108h-92zM119 604v108h92v-108h-92z" />
<glyph unicode="&#xed;" horiz-adv-x="264" d="M81 0v507h102v-507h-102zM158 599h-77l75 162h113z" />
<glyph unicode="&#xee;" horiz-adv-x="264" d="M81 0v507h102v-507h-102zM222 599l-87 97l-87 -97h-85l129 161h86l129 -161h-85z" />
<glyph unicode="&#xf3;" horiz-adv-x="537" d="M480 254q0 -65 -12 -113.5t-48 -86.5q-25 -26 -62.5 -43t-89.5 -17t-89 17t-62 43q-36 38 -48 86.5t-12 113.5q0 64 12 112.5t48 86.5q25 26 62 43t89 17t89.5 -17t62.5 -43q36 -38 48 -86.5t12 -112.5zM378 254q0 42 -6 79t-29 60q-29 29 -75 29q-45 0 -74 -29 q-23 -23 -29 -60t-6 -79t6 -79t29 -60q30 -30 74 -30q45 0 75 30q23 23 29 60t6 79zM293 599h-77l75 162h113z" />
<glyph unicode="&#xf4;" horiz-adv-x="537" d="M480 254q0 -65 -12 -113.5t-48 -86.5q-25 -26 -62.5 -43t-89.5 -17t-89 17t-62 43q-36 38 -48 86.5t-12 113.5q0 64 12 112.5t48 86.5q25 26 62 43t89 17t89.5 -17t62.5 -43q36 -38 48 -86.5t12 -112.5zM378 254q0 42 -6 79t-29 60q-29 29 -75 29q-45 0 -74 -29 q-23 -23 -29 -60t-6 -79t6 -79t29 -60q30 -30 74 -30q45 0 75 30q23 23 29 60t6 79zM355 599l-87 97l-87 -97h-85l129 161h86l129 -161h-85z" />
<glyph unicode="&#xf6;" horiz-adv-x="537" d="M480 254q0 -65 -12 -113.5t-48 -86.5q-25 -26 -62.5 -43t-89.5 -17t-89 17t-62 43q-36 38 -48 86.5t-12 113.5q0 64 12 112.5t48 86.5q25 26 62 43t89 17t89.5 -17t62.5 -43q36 -38 48 -86.5t12 -112.5zM378 254q0 42 -6 79t-29 60q-29 29 -75 29q-45 0 -74 -29 q-23 -23 -29 -60t-6 -79t6 -79t29 -60q30 -30 74 -30q45 0 75 30q23 23 29 60t6 79zM330 604v108h92v-108h-92zM114 604v108h92v-108h-92z" />
<glyph unicode="&#xf7;" d="M48 230v95h436v-95h-436zM212 33v109h109v-109h-109zM212 414v109h109v-109h-109z" />
<glyph unicode="&#xfa;" horiz-adv-x="568" d="M387 0v51q-26 -29 -61.5 -43t-73.5 -14q-39 0 -70.5 12t-54.5 34q-29 29 -40 64.5t-11 78.5v324h102v-309q0 -59 29.5 -86t72.5 -27q21 0 40.5 6.5t33.5 20.5t22.5 35.5t8.5 50.5v309h102v-507h-100zM306 599h-77l75 162h113z" />
<glyph unicode="&#xfc;" horiz-adv-x="568" d="M387 0v51q-26 -29 -61.5 -43t-73.5 -14q-39 0 -70.5 12t-54.5 34q-29 29 -40 64.5t-11 78.5v324h102v-309q0 -59 29.5 -86t72.5 -27q21 0 40.5 6.5t33.5 20.5t22.5 35.5t8.5 50.5v309h102v-507h-100zM127 604v108h92v-108h-92zM343 604v108h92v-108h-92z" />
<glyph unicode="&#xfd;" horiz-adv-x="468" d="M240 -101q-14 -40 -37 -63q-21 -21 -48 -29t-56 -8h-41v92h26q32 0 47 11.5t26 42.5l28 79l-177 483h108l121 -357l118 357h109zM259 599h-77l75 162h113z" />
<glyph unicode="&#x102;" horiz-adv-x="625" d="M502 0l-49 143h-281l-49 -143h-115l261 712h87l261 -712h-115zM315 551l-111 -316h219zM477 917q-5 -75 -49 -110t-115 -35t-116 35t-50 110h74q5 -35 30 -53t62 -18t62 18t30 53h72z" />
<glyph unicode="&#x103;" horiz-adv-x="530" d="M354 0v46q-28 -28 -58 -40t-77 -12q-48 0 -80.5 11.5t-55.5 34.5q-40 42 -40 109q0 64 43.5 105t131.5 41h134v36q0 48 -25.5 71.5t-85.5 23.5q-42 0 -66 -11t-45 -38l-67 63q36 42 77.5 57.5t104.5 15.5q209 0 209 -174v-339h-100zM352 224h-119q-45 0 -68 -19t-23 -54 t22.5 -53.5t70.5 -18.5q29 0 52 4.5t43 24.5q22 22 22 75v41zM427 735q-5 -75 -49 -110t-115 -35t-116 35t-50 110h74q5 -35 30 -53t62 -18t62 18t30 53h72z" />
<glyph unicode="&#x104;" horiz-adv-x="625" d="M502 0l-49 143h-281l-49 -143h-115l261 712h87l261 -712h-115zM315 551l-111 -316h219zM568 -211l-51 147h82l70 -147h-101z" />
<glyph unicode="&#x105;" horiz-adv-x="530" d="M354 0v46q-28 -28 -58 -40t-77 -12q-48 0 -80.5 11.5t-55.5 34.5q-40 42 -40 109q0 64 43.5 105t131.5 41h134v36q0 48 -25.5 71.5t-85.5 23.5q-42 0 -66 -11t-45 -38l-67 63q36 42 77.5 57.5t104.5 15.5q209 0 209 -174v-339h-100zM352 224h-119q-45 0 -68 -19t-23 -54 t22.5 -53.5t70.5 -18.5q29 0 52 4.5t43 24.5q22 22 22 75v41zM418 -211l-51 147h82l70 -147h-101z" />
<glyph unicode="&#x106;" horiz-adv-x="628" d="M577 213q-9 -53 -31.5 -94t-56 -69t-76 -42t-90.5 -14q-56 0 -103 19.5t-84 56.5q-26 26 -40 55t-20.5 63t-7.5 75.5t-1 92.5t1 92.5t7.5 75.5t20.5 63t40 55q37 37 84 56.5t103 19.5q99 0 167 -56t87 -163h-110q-13 54 -48.5 88t-95.5 34q-32 0 -59 -11.5t-46 -31.5 q-13 -14 -21.5 -30.5t-13 -41t-6.5 -60.5t-2 -90t2 -90t6.5 -60.5t13 -41t21.5 -30.5q19 -20 46 -31.5t59 -11.5q60 0 96 34t49 88h109zM339 781h-77l75 162h113z" />
<glyph unicode="&#x107;" horiz-adv-x="485" d="M448 66q-36 -38 -75 -55t-92 -17q-43 0 -83.5 14t-72 45t-51 80.5t-19.5 120.5t19.5 120.5t51 80t72 44.5t83.5 14q53 0 92 -16.5t75 -54.5l-70 -68q-24 26 -45.5 37t-51.5 11q-60 0 -94 -45q-17 -21 -23.5 -49.5t-6.5 -73.5t6.5 -74t23.5 -50q34 -45 94 -45 q30 0 51.5 11t45.5 37zM269 599h-77l75 162h113z" />
<glyph unicode="&#x10c;" horiz-adv-x="628" d="M577 213q-9 -53 -31.5 -94t-56 -69t-76 -42t-90.5 -14q-56 0 -103 19.5t-84 56.5q-26 26 -40 55t-20.5 63t-7.5 75.5t-1 92.5t1 92.5t7.5 75.5t20.5 63t40 55q37 37 84 56.5t103 19.5q99 0 167 -56t87 -163h-110q-13 54 -48.5 88t-95.5 34q-32 0 -59 -11.5t-46 -31.5 q-13 -14 -21.5 -30.5t-13 -41t-6.5 -60.5t-2 -90t2 -90t6.5 -60.5t13 -41t21.5 -30.5q19 -20 46 -31.5t59 -11.5q60 0 96 34t49 88h109zM357 781h-86l-129 161h85l87 -97l87 97h85z" />
<glyph unicode="&#x10d;" horiz-adv-x="485" d="M448 66q-36 -38 -75 -55t-92 -17q-43 0 -83.5 14t-72 45t-51 80.5t-19.5 120.5t19.5 120.5t51 80t72 44.5t83.5 14q53 0 92 -16.5t75 -54.5l-70 -68q-24 26 -45.5 37t-51.5 11q-60 0 -94 -45q-17 -21 -23.5 -49.5t-6.5 -73.5t6.5 -74t23.5 -50q34 -45 94 -45 q30 0 51.5 11t45.5 37zM296 599h-86l-129 161h85l87 -97l87 97h85z" />
<glyph unicode="&#x10e;" horiz-adv-x="666" d="M599 361q0 -39 -0.5 -79t-6.5 -78t-21 -73t-44 -64q-34 -34 -81 -50.5t-103 -16.5h-250v712h250q56 0 103 -16.5t81 -50.5q29 -29 44 -62.5t21 -70t6.5 -74.5t0.5 -77zM491 361q0 74 -5 124.5t-33 81.5q-44 48 -121 48h-131v-518h131q77 0 121 48q28 31 33 86.5t5 129.5z M376 781h-86l-129 161h85l87 -97l87 97h85z" />
<glyph unicode="&#x10f;" horiz-adv-x="553" d="M372 0v54q-29 -35 -60.5 -47.5t-73.5 -12.5q-38 0 -70.5 12t-53.5 33q-19 19 -30.5 44t-17.5 53.5t-7.5 58.5t-1.5 59t1.5 59t7.5 58t17.5 53t30.5 44q21 21 53 33t70 12q41 0 73 -12t60 -45v256h102v-712h-100zM370 254q0 34 -3.5 64.5t-14.5 53.5t-32 36.5t-55 13.5 q-35 0 -55.5 -13.5t-32 -36.5t-15 -53.5t-3.5 -64.5t3.5 -64.5t15 -54t32 -37t55.5 -13.5q34 0 55 13.5t32 37t14.5 54t3.5 64.5zM562 585v185h96v-106z" />
<glyph unicode="&#x110;" horiz-adv-x="684" d="M617 356q0 -55 -1 -93.5t-6.5 -68t-16.5 -53t-30 -47.5q-34 -42 -85 -68t-119 -26h-247v318h-74v83h74v311h250q127 0 201 -95q20 -26 31 -50.5t16 -54t6 -67t1 -89.5zM509 353q0 48 -1 80.5t-4 54.5t-9.5 37t-16.5 29q-23 32 -53.5 47t-75.5 15h-129v-215h138v-83h-138 v-222h129q90 0 133 63q9 13 14.5 26.5t8 34t3.5 52t1 81.5z" />
<glyph unicode="&#x111;" horiz-adv-x="553" d="M472 566v-566h-100v54q-29 -35 -60.5 -47.5t-73.5 -12.5q-38 0 -70.5 12t-53.5 33q-19 19 -30.5 44t-17.5 53.5t-7.5 58.5t-1.5 59t1.5 59t7.5 58t17.5 53t30.5 44q21 21 53 33t70 12q41 0 73 -12t60 -45v110h-69v73h69v73h102v-73h59v-73h-59zM370 254q0 34 -3.5 64.5 t-14.5 53.5t-32 36.5t-55 13.5q-35 0 -55.5 -13.5t-32 -36.5t-15 -53.5t-3.5 -64.5t3.5 -64.5t15 -54t32 -37t55.5 -13.5q34 0 55 13.5t32 37t14.5 54t3.5 64.5z" />
<glyph unicode="&#x118;" horiz-adv-x="603" d="M93 0v712h455v-97h-347v-208h296v-96h-296v-214h347v-97h-455zM478 -211l-51 147h82l70 -147h-101z" />
<glyph unicode="&#x119;" horiz-adv-x="539" d="M156 224q0 -66 33 -104t96 -38q43 0 69.5 12.5t53.5 39.5l65 -61q-20 -20 -39.5 -34.5t-42 -24.5t-49 -15t-59.5 -5q-48 0 -89.5 13.5t-72 44t-48.5 80.5t-18 122q0 124 58.5 191.5t156.5 67.5q51 0 91 -18t67.5 -50t42 -77t14.5 -99v-45h-329zM384 295q-1 23 -3.5 37.5 t-10.5 31.5q-12 29 -38 46.5t-62 17.5t-62.5 -17.5t-38.5 -46.5q-8 -17 -10 -31.5t-3 -37.5h228zM297 -211l-51 147h82l70 -147h-101z" />
<glyph unicode="&#x11a;" horiz-adv-x="603" d="M93 0v712h455v-97h-347v-208h296v-96h-296v-214h347v-97h-455zM344 781h-86l-129 161h85l87 -97l87 97h85z" />
<glyph unicode="&#x11b;" horiz-adv-x="539" d="M156 224q0 -66 33 -104t96 -38q43 0 69.5 12.5t53.5 39.5l65 -61q-20 -20 -39.5 -34.5t-42 -24.5t-49 -15t-59.5 -5q-48 0 -89.5 13.5t-72 44t-48.5 80.5t-18 122q0 124 58.5 191.5t156.5 67.5q51 0 91 -18t67.5 -50t42 -77t14.5 -99v-45h-329zM384 295q-1 23 -3.5 37.5 t-10.5 31.5q-12 29 -38 46.5t-62 17.5t-62.5 -17.5t-38.5 -46.5q-8 -17 -10 -31.5t-3 -37.5h228zM312 599h-86l-129 161h85l87 -97l87 97h85z" />
<glyph unicode="&#x131;" horiz-adv-x="264" d="M81 0v507h102v-507h-102z" />
<glyph unicode="&#x139;" horiz-adv-x="574" d="M93 0v712h108v-615h343v-97h-451zM312 781h-77l75 162h113z" />
<glyph unicode="&#x13a;" horiz-adv-x="311" d="M217 0q-36 0 -62.5 11.5t-43.5 30.5t-25 44.5t-8 53.5v572h102v-566q0 -29 12 -44t43 -15h45v-87h-63zM181 781h-77l75 162h113z" />
<glyph unicode="&#x13d;" horiz-adv-x="574" d="M93 0v712h108v-615h343v-97h-451zM342 516v196h96v-117z" />
<glyph unicode="&#x13e;" horiz-adv-x="311" d="M217 0q-36 0 -62.5 11.5t-43.5 30.5t-25 44.5t-8 53.5v572h102v-566q0 -29 12 -44t43 -15h45v-87h-63zM270 585v185h96v-106z" />
<glyph unicode="&#x141;" horiz-adv-x="587" d="M107 0v266l-69 -44v93l69 43v354h108v-286l141 89v-91l-141 -89v-238h342v-97h-450z" />
<glyph unicode="&#x142;" horiz-adv-x="326" d="M231 0q-36 0 -62.5 11.5t-43.5 30.5t-25 44.5t-8 53.5v181l-59 -36v87l59 36v304h102v-242l70 43v-86l-70 -44v-237q0 -29 12 -44t43 -15h45v-87h-63z" />
<glyph unicode="&#x143;" horiz-adv-x="722" d="M530 0l-329 501v-501h-108v712h99l329 -500v500h108v-712h-99zM386 781h-77l75 162h113z" />
<glyph unicode="&#x144;" horiz-adv-x="568" d="M390 0v309q0 59 -29.5 86t-72.5 27t-74 -27.5t-31 -85.5v-309h-102v507h100v-51q26 29 61.5 43t73.5 14q39 0 70.5 -12t54.5 -34q29 -29 40 -64.5t11 -78.5v-324h-102zM309 599h-77l75 162h113z" />
<glyph unicode="&#x147;" horiz-adv-x="722" d="M530 0l-329 501v-501h-108v712h99l329 -500v500h108v-712h-99zM404 781h-86l-129 161h85l87 -97l87 97h85z" />
<glyph unicode="&#x148;" horiz-adv-x="568" d="M390 0v309q0 59 -29.5 86t-72.5 27t-74 -27.5t-31 -85.5v-309h-102v507h100v-51q26 29 61.5 43t73.5 14q39 0 70.5 -12t54.5 -34q29 -29 40 -64.5t11 -78.5v-324h-102zM327 599h-86l-129 161h85l87 -97l87 97h85z" />
<glyph unicode="&#x150;" horiz-adv-x="646" d="M579 356q0 -51 -1 -92.5t-7 -75.5t-20 -63t-40 -55q-37 -37 -84 -56.5t-104 -19.5t-103.5 19.5t-83.5 56.5q-26 26 -40 55t-20.5 63t-7.5 75.5t-1 92.5t1 92.5t7.5 75.5t20.5 63t40 55q37 37 83.5 56.5t103.5 19.5t104 -19.5t84 -56.5q26 -26 40 -55t20 -63t7 -75.5 t1 -92.5zM471 356q0 54 -1.5 89.5t-6 60t-13 41t-21.5 30.5q-19 20 -46.5 32t-59.5 12t-59.5 -12t-46.5 -32q-13 -14 -21.5 -30.5t-13 -41t-6 -60t-1.5 -89.5t1.5 -89.5t6 -60t13 -41t21.5 -30.5q19 -20 46.5 -32t59.5 -12t59.5 12t46.5 32q13 14 21.5 30.5t13 41t6 60 t1.5 89.5zM253 781h-77l75 162h113zM437 781h-76l76 162h112z" />
<glyph unicode="&#x151;" horiz-adv-x="537" d="M480 254q0 -65 -12 -113.5t-48 -86.5q-25 -26 -62.5 -43t-89.5 -17t-89 17t-62 43q-36 38 -48 86.5t-12 113.5q0 64 12 112.5t48 86.5q25 26 62 43t89 17t89.5 -17t62.5 -43q36 -38 48 -86.5t12 -112.5zM378 254q0 42 -6 79t-29 60q-29 29 -75 29q-45 0 -74 -29 q-23 -23 -29 -60t-6 -79t6 -79t29 -60q30 -30 74 -30q45 0 75 30q23 23 29 60t6 79zM198 599h-77l75 162h113zM382 599h-76l76 162h112z" />
<glyph unicode="&#x154;" horiz-adv-x="655" d="M486 0l-150 300h-135v-300h-108v712h276q51 0 91.5 -15.5t69.5 -43t44.5 -66t15.5 -83.5q0 -77 -41 -124.5t-101 -64.5l164 -315h-126zM482 503q0 53 -33.5 82.5t-87.5 29.5h-160v-223h160q54 0 87.5 29t33.5 82zM352 781h-77l75 162h113z" />
<glyph unicode="&#x155;" horiz-adv-x="439" d="M360 388q-17 17 -33.5 25.5t-42.5 8.5q-42 0 -71.5 -30.5t-29.5 -83.5v-308h-102v507h100v-55q20 27 56 44t79 17q37 0 66 -11t55 -37zM245 599h-77l75 162h113z" />
<glyph unicode="&#x158;" horiz-adv-x="655" d="M486 0l-150 300h-135v-300h-108v712h276q51 0 91.5 -15.5t69.5 -43t44.5 -66t15.5 -83.5q0 -77 -41 -124.5t-101 -64.5l164 -315h-126zM482 503q0 53 -33.5 82.5t-87.5 29.5h-160v-223h160q54 0 87.5 29t33.5 82zM370 781h-86l-129 161h85l87 -97l87 97h85z" />
<glyph unicode="&#x159;" horiz-adv-x="439" d="M360 388q-17 17 -33.5 25.5t-42.5 8.5q-42 0 -71.5 -30.5t-29.5 -83.5v-308h-102v507h100v-55q20 27 56 44t79 17q37 0 66 -11t55 -37zM269 599h-86l-129 161h85l87 -97l87 97h85z" />
<glyph unicode="&#x15a;" horiz-adv-x="590" d="M538 203q0 -49 -19 -88t-53 -66t-81 -41t-103 -14q-81 0 -141 21t-111 73l72 71q39 -39 83 -53.5t99 -14.5q70 0 108.5 28.5t38.5 80.5q0 49 -28 74q-14 13 -30 19t-48 11l-84 12q-87 12 -135 57q-52 49 -52 136q0 46 16.5 84.5t47 66.5t74.5 43t100 15q71 0 123 -19 t98 -62l-69 -68q-33 32 -71.5 43.5t-83.5 11.5q-63 0 -96.5 -31.5t-33.5 -79.5q0 -20 6.5 -36.5t20.5 -29.5q28 -25 80 -33l81 -12q50 -8 80 -20.5t53 -32.5q29 -26 43.5 -63t14.5 -83zM320 781h-77l75 162h113z" />
<glyph unicode="&#x15b;" horiz-adv-x="499" d="M456 155q0 -40 -16 -70t-44 -50.5t-67 -30.5t-84 -10q-62 0 -115 14.5t-98 58.5l67 67q31 -32 69.5 -42.5t76.5 -10.5q47 0 79 17t32 53q0 26 -15.5 41.5t-52.5 18.5l-81 7q-72 6 -111 39.5t-39 100.5q0 37 15 66t41 48.5t60.5 30t74.5 10.5q57 0 105 -13t83 -44l-64 -65 q-24 20 -56.5 28.5t-68.5 8.5q-46 0 -69 -18t-23 -47q0 -23 14.5 -38.5t55.5 -19.5l80 -7q72 -6 111.5 -40.5t39.5 -102.5zM275 599h-77l75 162h113z" />
<glyph unicode="&#x15e;" horiz-adv-x="590" d="M538 203q0 -49 -19 -88t-53 -66t-81 -41t-103 -14q-81 0 -141 21t-111 73l72 71q39 -39 83 -53.5t99 -14.5q70 0 108.5 28.5t38.5 80.5q0 49 -28 74q-14 13 -30 19t-48 11l-84 12q-87 12 -135 57q-52 49 -52 136q0 46 16.5 84.5t47 66.5t74.5 43t100 15q71 0 123 -19 t98 -62l-69 -68q-33 32 -71.5 43.5t-83.5 11.5q-63 0 -96.5 -31.5t-33.5 -79.5q0 -20 6.5 -36.5t20.5 -29.5q28 -25 80 -33l81 -12q50 -8 80 -20.5t53 -32.5q29 -26 43.5 -63t14.5 -83zM309 -211h-101l70 147h82z" />
<glyph unicode="&#x15f;" horiz-adv-x="499" d="M456 155q0 -40 -16 -70t-44 -50.5t-67 -30.5t-84 -10q-62 0 -115 14.5t-98 58.5l67 67q31 -32 69.5 -42.5t76.5 -10.5q47 0 79 17t32 53q0 26 -15.5 41.5t-52.5 18.5l-81 7q-72 6 -111 39.5t-39 100.5q0 37 15 66t41 48.5t60.5 30t74.5 10.5q57 0 105 -13t83 -44l-64 -65 q-24 20 -56.5 28.5t-68.5 8.5q-46 0 -69 -18t-23 -47q0 -23 14.5 -38.5t55.5 -19.5l80 -7q72 -6 111.5 -40.5t39.5 -102.5zM264 -211h-101l70 147h82z" />
<glyph unicode="&#x160;" horiz-adv-x="590" d="M538 203q0 -49 -19 -88t-53 -66t-81 -41t-103 -14q-81 0 -141 21t-111 73l72 71q39 -39 83 -53.5t99 -14.5q70 0 108.5 28.5t38.5 80.5q0 49 -28 74q-14 13 -30 19t-48 11l-84 12q-87 12 -135 57q-52 49 -52 136q0 46 16.5 84.5t47 66.5t74.5 43t100 15q71 0 123 -19 t98 -62l-69 -68q-33 32 -71.5 43.5t-83.5 11.5q-63 0 -96.5 -31.5t-33.5 -79.5q0 -20 6.5 -36.5t20.5 -29.5q28 -25 80 -33l81 -12q50 -8 80 -20.5t53 -32.5q29 -26 43.5 -63t14.5 -83zM335 781h-86l-129 161h85l87 -97l87 97h85z" />
<glyph unicode="&#x161;" horiz-adv-x="499" d="M456 155q0 -40 -16 -70t-44 -50.5t-67 -30.5t-84 -10q-62 0 -115 14.5t-98 58.5l67 67q31 -32 69.5 -42.5t76.5 -10.5q47 0 79 17t32 53q0 26 -15.5 41.5t-52.5 18.5l-81 7q-72 6 -111 39.5t-39 100.5q0 37 15 66t41 48.5t60.5 30t74.5 10.5q57 0 105 -13t83 -44l-64 -65 q-24 20 -56.5 28.5t-68.5 8.5q-46 0 -69 -18t-23 -47q0 -23 14.5 -38.5t55.5 -19.5l80 -7q72 -6 111.5 -40.5t39.5 -102.5zM291 599h-86l-129 161h85l87 -97l87 97h85z" />
<glyph unicode="&#x162;" horiz-adv-x="560" d="M334 615v-615h-108v615h-196v97h500v-97h-196zM294 -211h-101l70 147h82z" />
<glyph unicode="&#x163;" horiz-adv-x="342" d="M232 0q-36 0 -62 12t-43 31.5t-25.5 45t-8.5 52.5v279h-58v78h58v154h102v-154h98v-78h-98v-274q0 -28 13.5 -43.5t42.5 -15.5h42v-87h-61zM187 -211h-101l70 147h82z" />
<glyph unicode="&#x164;" horiz-adv-x="560" d="M334 615v-615h-108v615h-196v97h500v-97h-196zM323 781h-86l-129 161h85l87 -97l87 97h85z" />
<glyph unicode="&#x165;" horiz-adv-x="342" d="M232 0q-36 0 -62 12t-43 31.5t-25.5 45t-8.5 52.5v279h-58v78h58v154h102v-154h98v-78h-98v-274q0 -28 13.5 -43.5t42.5 -15.5h42v-87h-61zM274 585v185h96v-106z" />
<glyph unicode="&#x16e;" horiz-adv-x="675" d="M593 240q0 -55 -19.5 -100.5t-54 -77.5t-81.5 -50t-101 -18t-101 18t-81 50t-53.5 77.5t-19.5 100.5v472h108v-467q0 -72 40 -113t107 -41t107.5 41t40.5 113v467h108v-472zM462 883q0 -26 -10 -48.5t-27 -39.5t-39.5 -27t-48.5 -10t-48.5 10t-39.5 27t-27 39.5t-10 48.5 t10 48.5t27 39.5t39.5 27t48.5 10t48.5 -10t39.5 -27t27 -39.5t10 -48.5zM401 883q0 26 -19 44.5t-45 18.5t-45 -18.5t-19 -44.5t19 -44.5t45 -18.5t45 18.5t19 44.5z" />
<glyph unicode="&#x16f;" horiz-adv-x="568" d="M387 0v51q-26 -29 -61.5 -43t-73.5 -14q-39 0 -70.5 12t-54.5 34q-29 29 -40 64.5t-11 78.5v324h102v-309q0 -59 29.5 -86t72.5 -27q21 0 40.5 6.5t33.5 20.5t22.5 35.5t8.5 50.5v309h102v-507h-100zM409 701q0 -26 -10 -48.5t-27 -39.5t-39.5 -27t-48.5 -10t-48.5 10 t-39.5 27t-27 39.5t-10 48.5t10 48.5t27 39.5t39.5 27t48.5 10t48.5 -10t39.5 -27t27 -39.5t10 -48.5zM348 701q0 26 -19 44.5t-45 18.5t-45 -18.5t-19 -44.5t19 -44.5t45 -18.5t45 18.5t19 44.5z" />
<glyph unicode="&#x170;" horiz-adv-x="675" d="M593 240q0 -55 -19.5 -100.5t-54 -77.5t-81.5 -50t-101 -18t-101 18t-81 50t-53.5 77.5t-19.5 100.5v472h108v-467q0 -72 40 -113t107 -41t107.5 41t40.5 113v467h108v-472zM267 781h-77l75 162h113zM451 781h-76l76 162h112z" />
<glyph unicode="&#x171;" horiz-adv-x="568" d="M387 0v51q-26 -29 -61.5 -43t-73.5 -14q-39 0 -70.5 12t-54.5 34q-29 29 -40 64.5t-11 78.5v324h102v-309q0 -59 29.5 -86t72.5 -27q21 0 40.5 6.5t33.5 20.5t22.5 35.5t8.5 50.5v309h102v-507h-100zM214 599h-77l75 162h113zM398 599h-76l76 162h112z" />
<glyph unicode="&#x179;" horiz-adv-x="552" d="M48 0v93l329 522h-315v97h442v-88l-331 -527h331v-97h-456zM301 781h-77l75 162h113z" />
<glyph unicode="&#x17a;" horiz-adv-x="469" d="M43 0v81l252 335h-238v91h364v-81l-254 -335h254v-91h-378zM260 599h-77l75 162h113z" />
<glyph unicode="&#x17b;" horiz-adv-x="552" d="M48 0v93l329 522h-315v97h442v-88l-331 -527h331v-97h-456zM222 802v91h108v-91h-108z" />
<glyph unicode="&#x17c;" horiz-adv-x="469" d="M43 0v81l252 335h-238v91h364v-81l-254 -335h254v-91h-378zM181 620v91h108v-91h-108z" />
<glyph unicode="&#x17d;" horiz-adv-x="552" d="M48 0v93l329 522h-315v97h442v-88l-331 -527h331v-97h-456zM324 781h-86l-129 161h85l87 -97l87 97h85z" />
<glyph unicode="&#x17e;" horiz-adv-x="469" d="M43 0v81l252 335h-238v91h364v-81l-254 -335h254v-91h-378zM282 599h-86l-129 161h85l87 -97l87 97h85z" />
<glyph unicode="&#x192;" horiz-adv-x="415" d="M326 630q-29 0 -45 -15.5t-21 -43.5l-32 -180h101v-78h-115l-91 -518h-102l91 518h-82v78h96l33 185q5 27 17.5 52.5t33 45t48.5 31.5t64 12h63v-87h-59z" />
<glyph unicode="&#x218;" horiz-adv-x="590" d="M538 203q0 -49 -19 -88t-53 -66t-81 -41t-103 -14q-81 0 -141 21t-111 73l72 71q39 -39 83 -53.5t99 -14.5q70 0 108.5 28.5t38.5 80.5q0 49 -28 74q-14 13 -30 19t-48 11l-84 12q-87 12 -135 57q-52 49 -52 136q0 46 16.5 84.5t47 66.5t74.5 43t100 15q71 0 123 -19 t98 -62l-69 -68q-33 32 -71.5 43.5t-83.5 11.5q-63 0 -96.5 -31.5t-33.5 -79.5q0 -20 6.5 -36.5t20.5 -29.5q28 -25 80 -33l81 -12q50 -8 80 -20.5t53 -32.5q29 -26 43.5 -63t14.5 -83zM309 -211h-101l70 147h82z" />
<glyph unicode="&#x219;" horiz-adv-x="499" d="M456 155q0 -40 -16 -70t-44 -50.5t-67 -30.5t-84 -10q-62 0 -115 14.5t-98 58.5l67 67q31 -32 69.5 -42.5t76.5 -10.5q47 0 79 17t32 53q0 26 -15.5 41.5t-52.5 18.5l-81 7q-72 6 -111 39.5t-39 100.5q0 37 15 66t41 48.5t60.5 30t74.5 10.5q57 0 105 -13t83 -44l-64 -65 q-24 20 -56.5 28.5t-68.5 8.5q-46 0 -69 -18t-23 -47q0 -23 14.5 -38.5t55.5 -19.5l80 -7q72 -6 111.5 -40.5t39.5 -102.5zM264 -211h-101l70 147h82z" />
<glyph unicode="&#x2c6;" horiz-adv-x="500" d="M337 599l-87 97l-87 -97h-85l129 161h86l129 -161h-85z" />
<glyph unicode="&#x2c7;" horiz-adv-x="500" d="M293 599h-86l-129 161h85l87 -97l87 97h85z" />
<glyph unicode="&#x2d8;" horiz-adv-x="625" d="M617 0h-115l-49 143h-281l-49 -143h-115l261 712h87zM423 235l-108 316l-111 -316h219z" />
<glyph unicode="&#x2d9;" horiz-adv-x="500" d="M196 620v91h108v-91h-108z" />
<glyph unicode="&#x2da;" horiz-adv-x="500" d="M375 701q0 -26 -10 -48.5t-27 -39.5t-39.5 -27t-48.5 -10t-48.5 10t-39.5 27t-27 39.5t-10 48.5t10 48.5t27 39.5t39.5 27t48.5 10t48.5 -10t39.5 -27t27 -39.5t10 -48.5zM314 701q0 26 -19 44.5t-45 18.5t-45 -18.5t-19 -44.5t19 -44.5t45 -18.5t45 18.5t19 44.5z" />
<glyph unicode="&#x2db;" horiz-adv-x="500" d="M228 -211l-51 147h82l70 -147h-101z" />
<glyph unicode="&#x2dc;" horiz-adv-x="500" d="M419 667q-34 -34 -57.5 -44.5t-46.5 -10.5q-22 0 -38.5 6t-36.5 17q-14 8 -27.5 13.5t-28.5 5.5q-13 0 -25 -4.5t-33 -25.5l-48 47q34 34 57 44.5t47 10.5q22 0 38.5 -6t36.5 -18q15 -9 27.5 -14t27.5 -5q12 0 25.5 5.5t33.5 25.5l48 -47v0z" />
<glyph unicode="&#x2dd;" horiz-adv-x="500" d="M160 599h-77l75 162h113zM344 599h-76l76 162h112z" />
<glyph unicode="&#x401;" horiz-adv-x="603" d="M363 809v108h92v-108h-92zM147 809v108h92v-108h-92zM93 0v712h455v-97h-347v-208h296v-96h-296v-214h347v-97h-455z" />
<glyph unicode="&#x404;" horiz-adv-x="646" />
<glyph unicode="&#x410;" horiz-adv-x="615" d="M497 0l-49 143h-281l-49 -143h-115l261 712h87l261 -712h-115zM310 551l-111 -316h219z" />
<glyph unicode="&#x411;" horiz-adv-x="663" d="M381 411q47 0 86.5 -13t68 -38.5t44.5 -63t16 -86.5t-16 -88t-44.5 -66t-68 -41.5t-86.5 -14.5h-288v712h432v-97h-324v-204h180zM371 97q57 0 87 30.5t30 78.5t-30 78t-87 30h-170v-217h170z" />
<glyph unicode="&#x412;" horiz-adv-x="663" d="M93 0v712h277q100 0 157.5 -52t57.5 -143q0 -29 -8.5 -53.5t-22 -44t-30.5 -33t-35 -20.5q21 -8 40 -22.5t34 -34.5t24 -47t9 -61q0 -49 -16 -86.5t-44.5 -63t-68 -38.5t-86.5 -13h-288zM201 615v-204h160q52 0 84 26t32 76t-32 76t-84 26h-160zM201 314v-217h170 q57 0 87 30.5t30 78.5t-30 78t-87 30h-170z" />
<glyph unicode="&#x413;" horiz-adv-x="525" d="M525 712v-97h-324v-615h-108v712h432z" />
<glyph unicode="&#x414;" horiz-adv-x="674" d="M669 96v-244h-96v148h-472v-148h-96v244h53l225 616h108l225 -616h53zM503 96l-153 454h-21l-157 -454h331z" />
<glyph unicode="&#x415;" horiz-adv-x="603" d="M93 0v712h455v-97h-347v-208h296v-96h-296v-214h347v-97h-455z" />
<glyph unicode="&#x416;" horiz-adv-x="978" d="M848 0l-247 324h-57v-324h-108v324h-59l-247 -324h-127l291 379l-256 333h127l223 -292h48v292h108v-292h46l223 292h127l-256 -333l291 -379h-127z" />
<glyph unicode="&#x417;" horiz-adv-x="551" d="M275 -6q-51 0 -94 11.5t-73.5 36t-48.5 62t-19 89.5h102q3 -57 37.5 -82t95.5 -25q68 0 100 30.5t32 86.5q0 54 -29 85.5t-89 31.5h-26v89h26q55 0 81 29.5t26 78.5q0 109 -121 109q-63 0 -91.5 -27t-32.5 -74h-102q5 91 64 142t162 51q54 0 95.5 -14.5t70 -40.5 t43 -62.5t14.5 -80.5q0 -57 -23.5 -94.5t-65.5 -57.5q46 -20 73 -61t27 -107q0 -51 -16.5 -89.5t-47 -64.5t-74 -39t-96.5 -13z" />
<glyph unicode="&#x418;" horiz-adv-x="732" d="M93 0v712h108v-529l330 529h108v-712h-108v528l-330 -528h-108z" />
<glyph unicode="&#x419;" horiz-adv-x="732" d="M93 0v712h108v-529l330 529h108v-712h-108v528l-330 -528h-108zM531 947q-5 -75 -49 -110t-115 -35t-116 35t-50 110h74q5 -35 30 -53t62 -18t62 18t30 53h72z" />
<glyph unicode="&#x41a;" horiz-adv-x="657" d="M520 0l-200 351l-119 -144v-207h-108v712h108v-358l290 358h132l-231 -279l255 -433h-127z" />
<glyph unicode="&#x41b;" horiz-adv-x="618" d="M356 712l262 -712h-115l-188 550h-9l-191 -550h-115l261 712h95z" />
<glyph unicode="&#x41c;" horiz-adv-x="814" d="M613 0v476l-164 -347h-80l-168 347v-476h-108v712h108l208 -443l204 443h108v-712h-108z" />
<glyph unicode="&#x41d;" horiz-adv-x="691" d="M490 0v311h-289v-311h-108v712h108v-304h289v304h108v-712h-108z" />
<glyph unicode="&#x41e;" horiz-adv-x="646" d="M579 356q0 -51 -1 -92.5t-7 -75.5t-20 -63t-40 -55q-37 -37 -84 -56.5t-104 -19.5t-103.5 19.5t-83.5 56.5q-26 26 -40 55t-20.5 63t-7.5 75.5t-1 92.5t1 92.5t7.5 75.5t20.5 63t40 55q37 37 83.5 56.5t103.5 19.5t104 -19.5t84 -56.5q26 -26 40 -55t20 -63t7 -75.5 t1 -92.5zM471 356q0 54 -1.5 89.5t-6 60t-13 41t-21.5 30.5q-19 20 -46.5 32t-59.5 12t-59.5 -12t-46.5 -32q-13 -14 -21.5 -30.5t-13 -41t-6 -60t-1.5 -89.5t1.5 -89.5t6 -60t13 -41t21.5 -30.5q19 -20 46.5 -32t59.5 -12t59.5 12t46.5 32q13 14 21.5 30.5t13 41t6 60 t1.5 89.5z" />
<glyph unicode="&#x41f;" horiz-adv-x="691" d="M490 0v615h-289v-615h-108v712h505v-712h-108z" />
<glyph unicode="&#x420;" horiz-adv-x="629" d="M591 496q0 -47 -16 -86.5t-46 -68t-72 -45t-94 -16.5h-162v-280h-108v712h270q52 0 94 -16.5t72 -45t46 -68.5t16 -86zM483 496q0 57 -34.5 88t-91.5 31h-156v-237h156q57 0 91.5 30.5t34.5 87.5z" />
<glyph unicode="&#x421;" horiz-adv-x="628" d="M577 213q-9 -53 -31.5 -94t-56 -69t-76 -42t-90.5 -14q-56 0 -103 19.5t-84 56.5q-26 26 -40 55t-20.5 63t-7.5 75.5t-1 92.5t1 92.5t7.5 75.5t20.5 63t40 55q37 37 84 56.5t103 19.5q99 0 167 -56t87 -163h-110q-13 54 -48.5 88t-95.5 34q-32 0 -59 -11.5t-46 -31.5 q-13 -14 -21.5 -30.5t-13 -41t-6.5 -60.5t-2 -90t2 -90t6.5 -60.5t13 -41t21.5 -30.5q19 -20 46 -31.5t59 -11.5q60 0 96 34t49 88h109z" />
<glyph unicode="&#x422;" horiz-adv-x="511" d="M309 615v-615h-108v615h-196v97h500v-97h-196z" />
<glyph unicode="&#x423;" horiz-adv-x="486" d="M521 712l-231 -567q-17 -41 -38 -69t-46.5 -45t-54.5 -24t-61 -7h-39v97h39q16 0 30 4.5t26.5 16t24.5 30t26 46.5l8 17l-205 501h112l149 -363l148 363h112z" />
<glyph unicode="&#x424;" horiz-adv-x="763" d="M436 633q54 0 105.5 -11.5t92 -42.5t65 -84.5t24.5 -138.5t-24.5 -139t-65 -85t-92 -43t-105.5 -12v-77h-108v77q-54 0 -106 11.5t-92.5 42.5t-65 85.5t-24.5 139.5t24.5 138.5t65 84.5t92.5 42.5t106 11.5v79h108v-79zM328 545q-50 -2 -90 -22q-17 -9 -33 -22.5 t-29 -33.5t-20.5 -47.5t-7.5 -63.5t7.5 -63.5t20.5 -47.5t29 -33.5t33 -22.5q40 -20 90 -22v378zM436 167q3 0 17 1t34 6.5t42.5 16.5t41.5 32t31.5 53.5t12.5 79.5t-12.5 79.5t-31.5 53.5t-41.5 32t-42.5 16.5t-34 6.5t-17 1v-378z" />
<glyph unicode="&#x425;" horiz-adv-x="558" d="M433 0l-155 273l-154 -273h-124l220 365l-206 347h124l140 -255l141 255h124l-206 -347l221 -365h-125z" />
<glyph unicode="&#x426;" horiz-adv-x="738" d="M93 0v712h108v-615h289v615h108v-615h96v-244h-96v147h-505z" />
<glyph unicode="&#x427;" horiz-adv-x="620" d="M527 712v-712h-108v276h-128q-50 0 -93 15.5t-75.5 45t-51 72.5t-18.5 99v204h108v-198q0 -70 35 -106t95 -36h128v340h108z" />
<glyph unicode="&#x428;" horiz-adv-x="1014" d="M921 712v-712h-828v712h108v-615h251v615h110v-615h251v615h108z" />
<glyph unicode="&#x429;" horiz-adv-x="1061" d="M921 0h-828v712h108v-615h251v615h110v-615h251v615h108v-615h96v-244h-96v147z" />
<glyph unicode="&#x42a;" horiz-adv-x="708" d="M448 411q47 0 86.5 -13t68 -38.5t44.5 -63t16 -86.5t-16 -88t-44.5 -66t-68 -41.5t-86.5 -14.5h-288v614h-144v98h252v-301h180zM438 97q57 0 87 30.5t30 78.5t-30 78t-87 30h-170v-217h170z" />
<glyph unicode="&#x42b;" horiz-adv-x="891" d="M381 411q47 0 86.5 -13t68 -38.5t44.5 -63t16 -86.5t-16 -88t-44.5 -66t-68 -41.5t-86.5 -14.5h-288v712h108v-301h180zM371 97q57 0 87 30.5t30 78.5t-30 78t-87 30h-170v-217h170zM798 712v-712h-108v712h108z" />
<glyph unicode="&#x42c;" horiz-adv-x="641" d="M381 411q47 0 86.5 -13t68 -38.5t44.5 -63t16 -86.5t-16 -88t-44.5 -66t-68 -41.5t-86.5 -14.5h-288v712h108v-301h180zM371 97q57 0 87 30.5t30 78.5t-30 78t-87 30h-170v-217h170z" />
<glyph unicode="&#x42d;" horiz-adv-x="645" d="M509 642q26 -27 40 -55.5t20.5 -62.5t7.5 -75.5t1 -92.5q0 -52 -1 -93t-7.5 -75.5t-20.5 -63t-40 -54.5q-38 -37 -85 -56.5t-103 -19.5q-48 0 -90.5 14t-75.5 42t-56 68.5t-32 93.5h110q13 -54 49 -87.5t95 -33.5q32 0 59 11.5t46 31.5q12 12 19.5 26t12.5 33.5t7.5 46 t3.5 65.5h-167v98h167q-1 40 -3.5 67.5t-7.5 47t-12.5 33.5t-19.5 26q-19 20 -46 32t-59 12q-59 0 -94.5 -34t-48.5 -88h-111q19 107 87.5 163t166.5 56q56 0 103 -19.5t85 -56.5z" />
<glyph unicode="&#x42e;" horiz-adv-x="888" d="M753 642q26 -27 40 -55.5t20 -62.5t7 -75.5t1 -92.5q0 -52 -1 -93t-7 -75.5t-20 -63t-40 -54.5q-37 -37 -84 -56.5t-104 -19.5t-103.5 19.5t-83.5 56.5q-23 23 -37 47.5t-21 53t-9.5 62t-2.5 74.5h-106v-307h-109v712h109v-308h106q0 41 2.5 74.5t9.5 62t21 53.5t37 48 q37 37 83.5 56.5t103.5 19.5t104 -19.5t84 -56.5zM670 135q13 14 21.5 30t13.5 40.5t6.5 60.5t1.5 90t-1.5 89.5t-6.5 60t-13.5 40.5t-21.5 30q-19 20 -46 32t-59 12t-59.5 -12t-46.5 -32q-13 -14 -21.5 -30t-13 -40.5t-6 -60t-1.5 -89.5t1.5 -90t6 -60.5t13 -40.5t21.5 -30 q19 -20 46.5 -32t59.5 -12t59 12t46 32z" />
<glyph unicode="&#x42f;" horiz-adv-x="668" d="M56 0l164 315q-60 17 -101 64.5t-41 124.5q0 45 15.5 83.5t44.5 66t69.5 43t91.5 15.5h276v-712h-108v300h-135l-150 -300h-126zM186 503q0 -53 33.5 -82t87.5 -29h160v223h-160q-54 0 -87.5 -29.5t-33.5 -82.5z" />
<glyph unicode="&#x430;" horiz-adv-x="530" d="M354 0v46q-28 -28 -58 -40t-77 -12q-48 0 -80.5 11.5t-55.5 34.5q-40 42 -40 109q0 64 43.5 105t131.5 41h134v36q0 48 -25.5 71.5t-85.5 23.5q-42 0 -66 -11t-45 -38l-67 63q36 42 77.5 57.5t104.5 15.5q209 0 209 -174v-339h-100zM352 224h-119q-45 0 -68 -19t-23 -54 t22.5 -53.5t70.5 -18.5q29 0 52 4.5t43 24.5q22 22 22 75v41z" />
<glyph unicode="&#x431;" horiz-adv-x="537" d="M420 453q37 -38 48.5 -87t11.5 -113t-11.5 -113t-48.5 -87q-24 -26 -62 -42.5t-89 -16.5q-53 0 -90 16.5t-62 42.5q-37 38 -48.5 87t-11.5 113q0 77 2 133.5t7 89.5t16.5 62t27.5 52q15 22 30 34.5t31 23.5q20 13 43.5 21.5t49.5 13.5q19 3 29 7t15 9q13 8 13 28h114 q-3 -42 -30 -66q-14 -11 -37.5 -21t-57.5 -17q-55 -11 -79 -23q-16 -8 -29 -20.5t-20 -24.5q-8 -14 -15 -35.5t-8 -47.5q13 11 31 20q15 8 35 14t44 6q51 0 89 -16.5t62 -42.5zM342 115q24 23 30 59.5t6 78.5t-6 79.5t-30 60.5q-30 28 -73 28q-23 0 -41.5 -7t-34.5 -21 q-23 -23 -28.5 -61t-5.5 -79q0 -42 5.5 -78.5t28.5 -59.5q16 -14 34.5 -22t41.5 -8q43 0 73 30z" />
<glyph unicode="&#x432;" horiz-adv-x="543" d="M397 261q29 -12 53 -40.5t24 -77.5q0 -71 -43 -107t-111 -36h-239v507h232q71 0 112 -37t41 -102q0 -42 -21.5 -69t-47.5 -38zM183 425v-125h111q32 0 51 16t19 47q0 30 -19 46t-51 16h-111zM301 82q34 0 52.5 19t18.5 48q0 30 -18.5 49.5t-52.5 19.5h-118v-136h118z" />
<glyph unicode="&#x433;" horiz-adv-x="419" d="M419 416h-236v-416h-102v507h338v-91z" />
<glyph unicode="&#x434;" horiz-adv-x="557" d="M549 91v-206h-82v115h-377v-115h-82v206h44l151 416h151l151 -416h44zM403 91l-113 325h-18l-114 -325h245z" />
<glyph unicode="&#x435;" horiz-adv-x="539" d="M156 224q0 -66 33 -104t96 -38q43 0 69.5 12.5t53.5 39.5l65 -61q-20 -20 -39.5 -34.5t-42 -24.5t-49 -15t-59.5 -5q-48 0 -89.5 13.5t-72 44t-48.5 80.5t-18 122q0 124 58.5 191.5t156.5 67.5q51 0 91 -18t67.5 -50t42 -77t14.5 -99v-45h-329zM384 295q-1 23 -3.5 37.5 t-10.5 31.5q-12 29 -38 46.5t-62 17.5t-62.5 -17.5t-38.5 -46.5q-8 -17 -10 -31.5t-3 -37.5h228z" />
<glyph unicode="&#x436;" horiz-adv-x="774" d="M335 0v232h-33l-178 -232h-124l207 270l-182 237h123l157 -204h30v204h102v-204h30l158 204h123l-181 -237l207 -270h-125l-177 232h-35v-232h-102v0z" />
<glyph unicode="&#x437;" horiz-adv-x="472" d="M315 261q28 -5 50 -19q19 -12 34.5 -36t15.5 -65q0 -72 -52 -109.5t-143 -37.5q-40 0 -73.5 7.5t-59.5 23.5t-42.5 41.5t-22.5 60.5l104 15q8 -35 32.5 -51t61.5 -15q50 1 72.5 19t22.5 52t-20.5 53t-63.5 19h-20v82h17q38 0 56 17.5t18 47.5q0 63 -84 65q-35 1 -54 -16 t-30 -46l-98 19q10 59 57.5 92t124.5 33q90 0 137 -39t47 -102q0 -40 -13.5 -62t-30.5 -33q-19 -13 -43 -16z" />
<glyph unicode="&#x438;" horiz-adv-x="595" d="M81 0v507h102v-346l228 346h102v-507h-102v346l-228 -346h-102v0z" />
<glyph unicode="&#x439;" horiz-adv-x="595" d="M460 712q-5 -75 -49 -110t-115 -35t-116 35t-50 110h74q5 -35 30 -53t62 -18t62 18t30 53h72zM81 0v507h102v-346l228 346h102v-507h-102v346l-228 -346h-102z" />
<glyph unicode="&#x43a;" horiz-adv-x="526" d="M400 0l-142 234l-75 -85v-149h-102v507h102v-234l197 234h124l-176 -199l198 -308h-126z" />
<glyph unicode="&#x43b;" horiz-adv-x="484" d="M305 507l184 -507h-104l-141 416l-144 -416h-105l185 507h125z" />
<glyph unicode="&#x43c;" horiz-adv-x="658" d="M475 0v319l-109 -227h-74l-109 227v-319h-102v507h116l132 -289l132 289h116v-507h-102z" />
<glyph unicode="&#x43d;" horiz-adv-x="574" d="M391 0v208h-208v-208h-102v507h102v-208h208v208h102v-507h-102z" />
<glyph unicode="&#x43e;" horiz-adv-x="507" d="M465 254q0 -65 -12 -113.5t-48 -86.5q-25 -26 -62.5 -43t-89.5 -17t-89 17t-62 43q-36 38 -48 86.5t-12 113.5q0 64 12 112.5t48 86.5q25 26 62 43t89 17t89.5 -17t62.5 -43q36 -38 48 -86.5t12 -112.5zM363 254q0 42 -6 79t-29 60q-29 29 -75 29q-45 0 -74 -29 q-23 -23 -29 -60t-6 -79t6 -79t29 -60q30 -30 74 -30q45 0 75 30q23 23 29 60t6 79z" />
<glyph unicode="&#x43f;" horiz-adv-x="574" d="M391 0v416h-208v-416h-102v507h412v-507h-102z" />
<glyph unicode="&#x440;" horiz-adv-x="553" d="M496 254q0 -29 -1.5 -59t-7.5 -58.5t-17.5 -53.5t-30.5 -44q-21 -21 -53 -33t-70 -12q-41 0 -73 12.5t-60 45.5v-257h-102v712h100v-54q29 35 60.5 47.5t73.5 12.5q38 0 70.5 -12t53.5 -33q19 -19 30.5 -44t17.5 -53t7.5 -58t1.5 -59zM394 254q0 34 -3.5 64.5t-14.5 53.5 t-32 36.5t-55 13.5q-35 0 -55.5 -13.5t-32 -36.5t-15 -53.5t-3.5 -64.5t3.5 -64.5t15 -54t32 -37t55.5 -13.5q34 0 55 13.5t32 37t14.5 54t3.5 64.5z" />
<glyph unicode="&#x441;" horiz-adv-x="485" d="M448 66q-36 -38 -75 -55t-92 -17q-43 0 -83.5 14t-72 45t-51 80.5t-19.5 120.5t19.5 120.5t51 80t72 44.5t83.5 14q53 0 92 -16.5t75 -54.5l-70 -68q-24 26 -45.5 37t-51.5 11q-60 0 -94 -45q-17 -21 -23.5 -49.5t-6.5 -73.5t6.5 -74t23.5 -50q34 -45 94 -45 q30 0 51.5 11t45.5 37l70 -67v0z" />
<glyph unicode="&#x442;" horiz-adv-x="424" d="M419 416h-156v-416h-102v416h-156v91h414v-91z" />
<glyph unicode="&#x443;" horiz-adv-x="449" d="M225 -101q-14 -40 -37 -63q-21 -21 -48 -29t-56 -8h-41v92h26q32 0 47 11.5t26 42.5l28 79l-177 483h108l121 -357l118 357h109z" />
<glyph unicode="&#x444;" horiz-adv-x="738" d="M420 507q49 0 96.5 -10.5t84 -39t59 -78t22.5 -126.5t-22.5 -126t-59 -77.5t-84 -39t-96.5 -10.5v-174h-102v174q-49 0 -96 10.5t-83.5 39t-59 77.5t-22.5 126t22.5 126.5t59 78t83.5 39t96 10.5v174h102v-174zM318 422q-3 0 -15.5 -1t-30.5 -5.5t-37.5 -14.5t-36.5 -29 t-28 -48t-11 -71t11 -71t28 -47.5t36.5 -28.5t37.5 -14.5t30.5 -5.5t15.5 -1v337zM420 85q3 0 16 1t30.5 5.5t37.5 14.5t37 28.5t28 47.5t11 71t-11 71t-28 48t-37 29t-37.5 14.5t-30.5 5.5t-16 1v-337z" />
<glyph unicode="&#x445;" horiz-adv-x="458" d="M336 0l-106 173l-107 -173h-123l174 259l-167 248h123l100 -165l99 165h123l-166 -248l173 -259h-123z" />
<glyph unicode="&#x446;" horiz-adv-x="615" d="M575 90v-204h-82v114h-412v507h102v-417h209v417h101v-417h82z" />
<glyph unicode="&#x447;" horiz-adv-x="485" d="M404 507v-507h-102v195h-89q-35 0 -66 10.5t-54 31.5t-36.5 51.5t-13.5 70.5v148h102v-119q0 -51 25 -76.5t68 -25.5h64v221h102z" />
<glyph unicode="&#x448;" horiz-adv-x="824" d="M743 507v-507h-662v507h102v-416h178v416h102v-416h178v416h102z" />
<glyph unicode="&#x449;" horiz-adv-x="865" d="M81 0v507h102v-416h178v416h102v-416h178v416h102v-416h82v-204h-82v113h-662z" />
<glyph unicode="&#x44a;" horiz-adv-x="583" d="M236 324h119q75 0 123 -40t48 -118q0 -38 -12.5 -69t-35.5 -52.5t-54.5 -33t-68.5 -11.5h-221v416h-112v91h214v-183zM340 85q42 0 63 22t21 57q0 34 -21 54.5t-63 20.5h-104v-154h104z" />
<glyph unicode="&#x44b;" horiz-adv-x="743" d="M302 324q75 0 123 -40t48 -118q0 -38 -12.5 -69t-35.5 -52.5t-54.5 -33t-68.5 -11.5h-221v507h102v-183h119zM287 85q42 0 63 22t21 57q0 34 -21 54.5t-63 20.5h-104v-154h104zM662 507v-507h-104v507h104z" />
<glyph unicode="&#x44c;" horiz-adv-x="530" d="M302 324q75 0 123 -40t48 -118q0 -38 -12.5 -69t-35.5 -52.5t-54.5 -33t-68.5 -11.5h-221v507h102v-183h119zM287 85q42 0 63 22t21 57q0 34 -21 54.5t-63 20.5h-104v-154h104z" />
<glyph unicode="&#x44d;" horiz-adv-x="482" d="M199 513q43 0 83.5 -14t72 -44.5t51 -80t19.5 -120.5t-19.5 -120.5t-51 -80.5t-72 -45t-83.5 -14q-53 0 -92 17t-75 55l70 67q24 -26 45.5 -37t51.5 -11q60 0 94 45q22 29 28 78h-131v91h131q-3 26 -10 44.5t-18 33.5q-34 45 -94 45q-30 0 -51.5 -11t-45.5 -37l-70 68 q36 38 75 54.5t92 16.5z" />
<glyph unicode="&#x44e;" horiz-adv-x="750" d="M618 453q36 -38 48 -86.5t12 -112.5q0 -65 -12 -113.5t-48 -86.5q-25 -26 -62.5 -43t-89.5 -17t-89 17t-62 43q-32 33 -44.5 74t-14.5 95h-73v-223h-102v507h102v-199h74q5 45 17.5 80.5t40.5 64.5q25 26 62 43t89 17t89.5 -17t62.5 -43zM541 115q23 23 29 60t6 79t-6 79 t-29 60q-29 29 -75 29q-45 0 -74 -29q-23 -23 -29 -60t-6 -79t6 -79t29 -60q30 -30 74 -30q45 0 75 30z" />
<glyph unicode="&#x44f;" horiz-adv-x="539" d="M249 211l-93 -211h-113l107 227q-93 36 -93 131q0 69 45 109q23 21 54 30.5t69 9.5h233v-507h-102v211h-107zM241 436q-21 0 -38 -4.5t-28 -15.5q-24 -19 -24 -54q0 -31 24 -57q23 -23 75 -23h106v154h-115z" />
<glyph unicode="&#x451;" horiz-adv-x="539" d="M156 224q0 -66 33 -104t96 -38q43 0 69.5 12.5t53.5 39.5l65 -61q-20 -20 -39.5 -34.5t-42 -24.5t-49 -15t-59.5 -5q-48 0 -89.5 13.5t-72 44t-48.5 80.5t-18 122q0 124 58.5 191.5t156.5 67.5q51 0 91 -18t67.5 -50t42 -77t14.5 -99v-45h-329zM384 295q-1 23 -3.5 37.5 t-10.5 31.5q-12 29 -38 46.5t-62 17.5t-62.5 -17.5t-38.5 -46.5q-8 -17 -10 -31.5t-3 -37.5h228zM331 604v108h92v-108h-92zM115 604v108h92v-108h-92z" />
<glyph unicode="&#x2013;" d="M51 230v95h431v-95h-431z" />
<glyph unicode="&#x2014;" horiz-adv-x="972" d="M67 231v97h838v-97h-838z" />
<glyph unicode="&#x2018;" horiz-adv-x="268" d="M78 608v104l112 93v-197h-112z" />
<glyph unicode="&#x2019;" horiz-adv-x="268" d="M78 516v196h112v-105z" />
<glyph unicode="&#x201a;" horiz-adv-x="267" d="M78 -92v197h112v-105z" />
<glyph unicode="&#x201c;" horiz-adv-x="459" d="M269 608v104l112 93v-197h-112zM78 608v104l112 93v-197h-112z" />
<glyph unicode="&#x201d;" horiz-adv-x="459" d="M269 516v196h112v-105zM78 516v196h112v-105z" />
<glyph unicode="&#x201e;" horiz-adv-x="460" d="M269 -92v197h112v-105zM78 -92v197h112v-105z" />
<glyph unicode="&#x2020;" horiz-adv-x="591" d="M346 427v-427h-102v427h-179v91h179v194h102v-194h180v-91h-180z" />
<glyph unicode="&#x2021;" horiz-adv-x="591" d="M346 -11v-194h-102v194h-179v92h179v346h-179v91h179v194h102v-194h180v-91h-180v-346h180v-92h-180z" />
<glyph unicode="&#x2022;" horiz-adv-x="512" d="M419 334q0 -34 -13 -63.5t-35 -51.5t-51.5 -35t-63.5 -13t-63.5 13t-51.5 35t-35 51.5t-13 63.5t13 63.5t35 51.5t51.5 35t63.5 13t63.5 -13t51.5 -35t35 -51.5t13 -63.5z" />
<glyph unicode="&#x2026;" horiz-adv-x="803" d="M608 0v117h117v-117h-117zM78 0v117h117v-117h-117zM343 0v117h117v-117h-117z" />
<glyph unicode="&#x2030;" horiz-adv-x="1196" d="M784 130q0 -32 -11 -57.5t-30 -43t-44.5 -27t-54.5 -9.5t-54.5 9.5t-44.5 27t-30 43t-11 57.5v101q0 32 11 57.5t30 43t44.5 27t54.5 9.5t54.5 -9.5t44.5 -27t30 -43t11 -57.5v-101zM1138 130q0 -32 -11 -57.5t-30 -43t-44.5 -27t-54.5 -9.5t-54.5 9.5t-44.5 27t-30 43 t-11 57.5v101q0 32 11 57.5t30 43t44.5 27t54.5 9.5t54.5 -9.5t44.5 -27t30 -43t11 -57.5v-101zM338 481q0 -32 -11 -57.5t-30 -43t-44.5 -26.5t-54.5 -9t-54.5 9t-44.5 26.5t-30 43t-11 57.5v101q0 32 11 57.5t30 43t44.5 27t54.5 9.5t54.5 -9.5t44.5 -27t30 -43t11 -57.5 v-101zM294 0h-82l336 712h81zM707 228q0 34 -15.5 53t-47.5 19t-47.5 -18.5t-15.5 -53.5v-95q0 -35 15.5 -53.5t47.5 -18.5t47.5 19t15.5 53v95zM1061 228q0 34 -15.5 53t-47.5 19t-47.5 -18.5t-15.5 -53.5v-95q0 -35 15.5 -53.5t47.5 -18.5t47.5 19t15.5 53v95zM261 579 q0 34 -15.5 53t-47.5 19t-47.5 -18.5t-15.5 -53.5v-95q0 -71 63 -71q32 0 47.5 18.5t15.5 52.5v95z" />
<glyph unicode="&#x2039;" horiz-adv-x="339" d="M37 272l230 229v-123l-107 -106l107 -107v-123z" />
<glyph unicode="&#x203a;" horiz-adv-x="339" d="M72 42v123l108 107l-108 106v123l231 -229z" />
<glyph unicode="&#x20ac;" horiz-adv-x="681" d="M621 213q-9 -53 -32 -94t-56.5 -68.5t-76 -42t-90.5 -14.5q-56 0 -102.5 19.5t-83.5 56.5q-36 36 -49 78t-17 100h-71v67h68v86h-68v67h71q4 56 17.5 97.5t48.5 76.5q37 37 83.5 56.5t102.5 19.5q49 0 91.5 -14.5t76 -42t56 -68.5t31.5 -94h-110q-13 54 -49 88.5 t-96 34.5q-32 0 -58.5 -12t-46.5 -32q-19 -20 -27 -43.5t-11 -66.5h183v-67h-187v-86h187v-67h-183q3 -45 11 -69.5t27 -44.5q20 -20 46.5 -32t58.5 -12q60 0 96.5 34.5t49.5 88.5h109v0z" />
<glyph unicode="&#x2122;" horiz-adv-x="883" d="M745 285v279l-90 -179h-71l-90 179v-279h-77v427h77l125 -243l126 243h77v-427h-77zM231 643v-358h-76v358h-114v69h305v-69h-115z" />
<glyph unicode="&#x2212;" d="M51 230v95h431v-95h-431z" />
<glyph unicode="&#x25fc;" horiz-adv-x="505" d="M0 505h505v-505h-505v505z" />
</font>
</defs>
</svg>
